M48
;GenerationSoftware,Autodesk,EAGLE,9.5.1*%
;CreationDate,2025-01-02T04:21:04Z*%
FMAT,2
ICI,OFF
METRIC,TZ,000.000
T8C0.350
T7C0.400
T6C0.800
T5C1.000
T4C1.100
T3C1.150
T2C1.202
T1C3.200
%
G90
M71
T1
X50250Y4500
X9500Y26750
T2
X54083Y3632
X61233Y3632
T3
X3810Y13970
X6350Y21590
X3810Y19050
X6350Y19050
X3810Y16510
X6350Y16510
X6350Y3810
X3810Y3810
X6350Y6350
X3810Y6350
X6350Y8890
X3810Y8890
X6350Y11430
X3810Y11430
X6350Y13970
X3810Y21590
T4
X10160Y3810
X10160Y8890
X10160Y6350
T5
X56082Y18250
X56082Y26250
T6
X29337Y967
X20750Y2794
X18250Y2794
X15750Y2794
X29337Y2767
T7
X56358Y3522
X57008Y2522
X57658Y3522
X58308Y2522
X58958Y3522
T8
X54889Y6299
X34290Y24076
X24740Y17374
X20625Y17729
X9169Y16205
X32664Y22047
X21438Y24943
X27102Y6731
X51800Y8890
X51876Y11151
X38710Y19406
X18923Y25806
X34605Y13145
X37171Y3417
X33081Y2630
X16764Y8407
X27559Y11506
X28753Y12903
X23435Y3412
X20066Y15977
X12421Y2083
X15207Y19007
X16713Y25730
X16891Y23266
X14580Y23520
X28600Y6883
X16377Y3797
X33100Y11983
X14389Y25108
X9182Y19679
X11786Y17742
X31623Y23510
X29410Y23397
X30429Y22250
X34290Y22860
X34290Y21590
X30472Y20326
X43688Y23829
X9154Y12919
X27318Y15260
X43132Y22754
X26695Y15824
X39014Y21082
X26610Y13453
X36170Y14656
X23895Y17532
X23682Y18372
X20574Y26746
X20091Y22428
X26187Y21999
X18872Y28753
X16485Y19050
X27810Y20431
X17780Y21539
X28042Y22135
X20879Y19660
X26693Y20144
X33948Y6985
X33948Y5461
X32650Y12900
X13800Y16150
X31600Y13050
X15050Y16150
X32300Y11350
X12751Y14900
X54125Y5750
X51800Y10160
X35139Y7634
X13589Y27940
X24638Y27813
X43663Y28600
X48170Y26475
X47697Y22323
X27935Y19055
X47292Y17599
X29210Y19055
X27935Y17780
X29210Y17780
X30485Y17780
X27935Y16505
X29210Y16505
X30485Y16505
X50927Y14605
X45466Y12954
X51800Y6971
X41783Y2845
X36932Y17856
X32741Y7341
X60325Y5969
X60579Y12954
X56947Y20980
X59944Y2032
X27508Y13386
X9102Y17747
X41758Y5461
X24257Y15621
X33960Y19609
X33960Y17755
X24841Y22149
X21234Y22885
X54401Y18215
X42912Y25346
X39229Y22120
X57277Y6071
X57023Y14148
X41732Y17729
X39802Y15316
X36779Y12725
X36093Y19253
X47295Y8966
X30485Y19055
M30