G04 EAGLE Gerber RS-274X export*
G75*
%MOMM*%
%FSLAX34Y34*%
%LPD*%
%IN*%
%IPPOS*%
%AMOC8*
5,1,8,0,0,1.08239X$1,22.5*%
G01*
%ADD10C,0.254000*%


D10*
X0Y15000D02*
X57Y13693D01*
X228Y12395D01*
X511Y11118D01*
X905Y9870D01*
X1405Y8661D01*
X2010Y7500D01*
X2713Y6396D01*
X3509Y5358D01*
X4393Y4393D01*
X5358Y3509D01*
X6396Y2713D01*
X7500Y2010D01*
X8661Y1405D01*
X9870Y905D01*
X11118Y511D01*
X12395Y228D01*
X13693Y57D01*
X15000Y0D01*
X615000Y0D01*
X616307Y57D01*
X617605Y228D01*
X618882Y511D01*
X620130Y905D01*
X621339Y1405D01*
X622500Y2010D01*
X623604Y2713D01*
X624642Y3509D01*
X625607Y4393D01*
X626491Y5358D01*
X627287Y6396D01*
X627990Y7500D01*
X628595Y8661D01*
X629095Y9870D01*
X629489Y11118D01*
X629772Y12395D01*
X629943Y13693D01*
X630000Y15000D01*
X630000Y315000D01*
X629943Y316307D01*
X629772Y317605D01*
X629489Y318882D01*
X629095Y320130D01*
X628595Y321339D01*
X627990Y322500D01*
X627287Y323604D01*
X626491Y324642D01*
X625607Y325607D01*
X624642Y326491D01*
X623604Y327287D01*
X622500Y327990D01*
X621339Y328595D01*
X620130Y329095D01*
X618882Y329489D01*
X617605Y329772D01*
X616307Y329943D01*
X615000Y330000D01*
X5000Y330000D01*
X4564Y329981D01*
X4132Y329924D01*
X3706Y329830D01*
X3290Y329698D01*
X2887Y329532D01*
X2500Y329330D01*
X2132Y329096D01*
X1786Y328830D01*
X1464Y328536D01*
X1170Y328214D01*
X904Y327868D01*
X670Y327500D01*
X468Y327113D01*
X302Y326710D01*
X170Y326294D01*
X76Y325868D01*
X19Y325436D01*
X0Y325000D01*
X0Y15000D01*
X518500Y44476D02*
X518432Y43431D01*
X518295Y42392D01*
X518090Y41365D01*
X517819Y40353D01*
X517483Y39361D01*
X517082Y38393D01*
X516618Y37454D01*
X516095Y36546D01*
X515513Y35675D01*
X514875Y34844D01*
X514184Y34057D01*
X513443Y33316D01*
X512656Y32625D01*
X511825Y31988D01*
X510954Y31406D01*
X510046Y30882D01*
X509107Y30418D01*
X508139Y30017D01*
X507147Y29681D01*
X506135Y29410D01*
X505108Y29205D01*
X504069Y29069D01*
X503024Y29000D01*
X501976Y29000D01*
X500931Y29069D01*
X499892Y29205D01*
X498865Y29410D01*
X497853Y29681D01*
X496861Y30017D01*
X495893Y30418D01*
X494954Y30882D01*
X494046Y31406D01*
X493175Y31988D01*
X492344Y32625D01*
X491557Y33316D01*
X490816Y34057D01*
X490125Y34844D01*
X489488Y35675D01*
X488906Y36546D01*
X488382Y37454D01*
X487918Y38393D01*
X487517Y39361D01*
X487181Y40353D01*
X486910Y41365D01*
X486705Y42392D01*
X486569Y43431D01*
X486500Y44476D01*
X486500Y45524D01*
X486569Y46569D01*
X486705Y47608D01*
X486910Y48635D01*
X487181Y49647D01*
X487517Y50639D01*
X487918Y51607D01*
X488382Y52546D01*
X488906Y53454D01*
X489488Y54325D01*
X490125Y55156D01*
X490816Y55943D01*
X491557Y56684D01*
X492344Y57375D01*
X493175Y58013D01*
X494046Y58595D01*
X494954Y59118D01*
X495893Y59582D01*
X496861Y59983D01*
X497853Y60319D01*
X498865Y60590D01*
X499892Y60795D01*
X500931Y60932D01*
X501976Y61000D01*
X503024Y61000D01*
X504069Y60932D01*
X505108Y60795D01*
X506135Y60590D01*
X507147Y60319D01*
X508139Y59983D01*
X509107Y59582D01*
X510046Y59118D01*
X510954Y58595D01*
X511825Y58013D01*
X512656Y57375D01*
X513443Y56684D01*
X514184Y55943D01*
X514875Y55156D01*
X515513Y54325D01*
X516095Y53454D01*
X516618Y52546D01*
X517082Y51607D01*
X517483Y50639D01*
X517819Y49647D01*
X518090Y48635D01*
X518295Y47608D01*
X518432Y46569D01*
X518500Y45524D01*
X518500Y44476D01*
X111000Y266976D02*
X110932Y265931D01*
X110795Y264892D01*
X110590Y263865D01*
X110319Y262853D01*
X109983Y261861D01*
X109582Y260893D01*
X109118Y259954D01*
X108595Y259046D01*
X108013Y258175D01*
X107375Y257344D01*
X106684Y256557D01*
X105943Y255816D01*
X105156Y255125D01*
X104325Y254488D01*
X103454Y253906D01*
X102546Y253382D01*
X101607Y252918D01*
X100639Y252517D01*
X99647Y252181D01*
X98635Y251910D01*
X97608Y251705D01*
X96569Y251569D01*
X95524Y251500D01*
X94476Y251500D01*
X93431Y251569D01*
X92392Y251705D01*
X91365Y251910D01*
X90353Y252181D01*
X89361Y252517D01*
X88393Y252918D01*
X87454Y253382D01*
X86546Y253906D01*
X85675Y254488D01*
X84844Y255125D01*
X84057Y255816D01*
X83316Y256557D01*
X82625Y257344D01*
X81988Y258175D01*
X81406Y259046D01*
X80882Y259954D01*
X80418Y260893D01*
X80017Y261861D01*
X79681Y262853D01*
X79410Y263865D01*
X79205Y264892D01*
X79069Y265931D01*
X79000Y266976D01*
X79000Y268024D01*
X79069Y269069D01*
X79205Y270108D01*
X79410Y271135D01*
X79681Y272147D01*
X80017Y273139D01*
X80418Y274107D01*
X80882Y275046D01*
X81406Y275954D01*
X81988Y276825D01*
X82625Y277656D01*
X83316Y278443D01*
X84057Y279184D01*
X84844Y279875D01*
X85675Y280513D01*
X86546Y281095D01*
X87454Y281618D01*
X88393Y282082D01*
X89361Y282483D01*
X90353Y282819D01*
X91365Y283090D01*
X92392Y283295D01*
X93431Y283432D01*
X94476Y283500D01*
X95524Y283500D01*
X96569Y283432D01*
X97608Y283295D01*
X98635Y283090D01*
X99647Y282819D01*
X100639Y282483D01*
X101607Y282082D01*
X102546Y281618D01*
X103454Y281095D01*
X104325Y280513D01*
X105156Y279875D01*
X105943Y279184D01*
X106684Y278443D01*
X107375Y277656D01*
X108013Y276825D01*
X108595Y275954D01*
X109118Y275046D01*
X109582Y274107D01*
X109983Y273139D01*
X110319Y272147D01*
X110590Y271135D01*
X110795Y270108D01*
X110932Y269069D01*
X111000Y268024D01*
X111000Y266976D01*
X297370Y27407D02*
X297302Y26887D01*
X297166Y26380D01*
X296965Y25896D01*
X296703Y25442D01*
X296384Y25026D01*
X296013Y24655D01*
X295597Y24336D01*
X295143Y24074D01*
X294659Y23873D01*
X294152Y23737D01*
X293632Y23669D01*
X293108Y23669D01*
X292588Y23737D01*
X292081Y23873D01*
X291597Y24074D01*
X291143Y24336D01*
X290727Y24655D01*
X290356Y25026D01*
X290037Y25442D01*
X289775Y25896D01*
X289574Y26380D01*
X289438Y26887D01*
X289370Y27407D01*
X289370Y27931D01*
X289438Y28451D01*
X289574Y28958D01*
X289775Y29442D01*
X290037Y29896D01*
X290356Y30312D01*
X290727Y30683D01*
X291143Y31002D01*
X291597Y31264D01*
X292081Y31465D01*
X292588Y31601D01*
X293108Y31669D01*
X293632Y31669D01*
X294152Y31601D01*
X294659Y31465D01*
X295143Y31264D01*
X295597Y31002D01*
X296013Y30683D01*
X296384Y30312D01*
X296703Y29896D01*
X296965Y29442D01*
X297166Y28958D01*
X297302Y28451D01*
X297370Y27931D01*
X297370Y27407D01*
X297370Y9407D02*
X297302Y8887D01*
X297166Y8380D01*
X296965Y7896D01*
X296703Y7442D01*
X296384Y7026D01*
X296013Y6655D01*
X295597Y6336D01*
X295143Y6074D01*
X294659Y5873D01*
X294152Y5737D01*
X293632Y5669D01*
X293108Y5669D01*
X292588Y5737D01*
X292081Y5873D01*
X291597Y6074D01*
X291143Y6336D01*
X290727Y6655D01*
X290356Y7026D01*
X290037Y7442D01*
X289775Y7896D01*
X289574Y8380D01*
X289438Y8887D01*
X289370Y9407D01*
X289370Y9931D01*
X289438Y10451D01*
X289574Y10958D01*
X289775Y11442D01*
X290037Y11896D01*
X290356Y12312D01*
X290727Y12683D01*
X291143Y13002D01*
X291597Y13264D01*
X292081Y13465D01*
X292588Y13601D01*
X293108Y13669D01*
X293632Y13669D01*
X294152Y13601D01*
X294659Y13465D01*
X295143Y13264D01*
X295597Y13002D01*
X296013Y12683D01*
X296384Y12312D01*
X296703Y11896D01*
X296965Y11442D01*
X297166Y10958D01*
X297302Y10451D01*
X297370Y9931D01*
X297370Y9407D01*
X561101Y187500D02*
X561659Y187437D01*
X562206Y187312D01*
X562736Y187127D01*
X563242Y186883D01*
X563718Y186584D01*
X564157Y186234D01*
X564554Y185837D01*
X564904Y185398D01*
X565203Y184922D01*
X565447Y184416D01*
X565632Y183886D01*
X565757Y183339D01*
X565820Y182781D01*
X565820Y182219D01*
X565757Y181661D01*
X565632Y181114D01*
X565447Y180584D01*
X565203Y180078D01*
X564904Y179602D01*
X564554Y179163D01*
X564157Y178766D01*
X563718Y178416D01*
X563242Y178117D01*
X562736Y177873D01*
X562206Y177688D01*
X561659Y177563D01*
X561101Y177500D01*
X560539Y177500D01*
X559981Y177563D01*
X559434Y177688D01*
X558904Y177873D01*
X558398Y178117D01*
X557922Y178416D01*
X557483Y178766D01*
X557086Y179163D01*
X556736Y179602D01*
X556437Y180078D01*
X556193Y180584D01*
X556008Y181114D01*
X555883Y181661D01*
X555820Y182219D01*
X555820Y182781D01*
X555883Y183339D01*
X556008Y183886D01*
X556193Y184416D01*
X556437Y184922D01*
X556736Y185398D01*
X557086Y185837D01*
X557483Y186234D01*
X557922Y186584D01*
X558398Y186883D01*
X558904Y187127D01*
X559434Y187312D01*
X559981Y187437D01*
X560539Y187500D01*
X561101Y187500D01*
X561101Y267500D02*
X561659Y267437D01*
X562206Y267312D01*
X562736Y267127D01*
X563242Y266883D01*
X563718Y266584D01*
X564157Y266234D01*
X564554Y265837D01*
X564904Y265398D01*
X565203Y264922D01*
X565447Y264416D01*
X565632Y263886D01*
X565757Y263339D01*
X565820Y262781D01*
X565820Y262219D01*
X565757Y261661D01*
X565632Y261114D01*
X565447Y260584D01*
X565203Y260078D01*
X564904Y259602D01*
X564554Y259163D01*
X564157Y258766D01*
X563718Y258416D01*
X563242Y258117D01*
X562736Y257873D01*
X562206Y257688D01*
X561659Y257563D01*
X561101Y257500D01*
X560539Y257500D01*
X559981Y257563D01*
X559434Y257688D01*
X558904Y257873D01*
X558398Y258117D01*
X557922Y258416D01*
X557483Y258766D01*
X557086Y259163D01*
X556736Y259602D01*
X556437Y260078D01*
X556193Y260584D01*
X556008Y261114D01*
X555883Y261661D01*
X555820Y262219D01*
X555820Y262781D01*
X555883Y263339D01*
X556008Y263886D01*
X556193Y264416D01*
X556437Y264922D01*
X556736Y265398D01*
X557086Y265837D01*
X557483Y266234D01*
X557922Y266584D01*
X558398Y266883D01*
X558904Y267127D01*
X559434Y267312D01*
X559981Y267437D01*
X560539Y267500D01*
X561101Y267500D01*
M02*
