G04 EAGLE Gerber RS-274X export*
G75*
%MOMM*%
%FSLAX34Y34*%
%LPD*%
%INSoldermask Top*%
%IPPOS*%
%AMOC8*
5,1,8,0,0,1.08239X$1,22.5*%
G01*
%ADD10C,3.301600*%
%ADD11C,0.429206*%
%ADD12R,0.801600X0.701600*%
%ADD13R,0.701600X0.801600*%
%ADD14R,1.901600X1.901600*%
%ADD15C,1.901600*%
%ADD16R,0.751600X1.751600*%
%ADD17R,2.201600X1.501600*%
%ADD18C,1.009600*%
%ADD19C,1.904750*%
%ADD20C,1.409600*%
%ADD21R,2.336800X1.320800*%
%ADD22R,2.301600X3.701600*%
%ADD23R,1.201600X1.101600*%
%ADD24R,1.101600X1.201600*%
%ADD25R,1.201600X1.001600*%
%ADD26R,1.501600X1.051600*%
%ADD27C,0.901600*%
%ADD28R,0.801600X1.301600*%
%ADD29P,2.004153X8X22.500000*%
%ADD30R,1.201600X1.301600*%
%ADD31C,1.101600*%
%ADD32R,2.301600X1.301600*%
%ADD33R,1.901600X1.301600*%
%ADD34R,1.601600X1.701600*%
%ADD35R,1.701600X0.801600*%

G36*
X261608Y202802D02*
X261608Y202802D01*
X261617Y202801D01*
X261705Y202822D01*
X261795Y202840D01*
X261802Y202845D01*
X261810Y202847D01*
X261883Y202901D01*
X261959Y202953D01*
X261963Y202960D01*
X261970Y202965D01*
X262017Y203043D01*
X262066Y203120D01*
X262067Y203129D01*
X262072Y203136D01*
X262099Y203300D01*
X262099Y204300D01*
X262098Y204308D01*
X262099Y204315D01*
X262099Y204316D01*
X262099Y204317D01*
X262078Y204405D01*
X262060Y204495D01*
X262055Y204502D01*
X262053Y204510D01*
X261999Y204583D01*
X261947Y204659D01*
X261940Y204663D01*
X261935Y204670D01*
X261857Y204717D01*
X261780Y204766D01*
X261771Y204767D01*
X261764Y204772D01*
X261600Y204799D01*
X253850Y204799D01*
X253842Y204798D01*
X253833Y204799D01*
X253745Y204778D01*
X253655Y204760D01*
X253648Y204755D01*
X253640Y204753D01*
X253567Y204699D01*
X253491Y204647D01*
X253487Y204640D01*
X253480Y204635D01*
X253433Y204557D01*
X253384Y204480D01*
X253383Y204471D01*
X253378Y204464D01*
X253351Y204300D01*
X253351Y203300D01*
X253352Y203292D01*
X253351Y203283D01*
X253372Y203195D01*
X253390Y203105D01*
X253395Y203098D01*
X253397Y203090D01*
X253451Y203017D01*
X253503Y202941D01*
X253510Y202937D01*
X253515Y202930D01*
X253593Y202883D01*
X253670Y202834D01*
X253679Y202833D01*
X253686Y202828D01*
X253850Y202801D01*
X261600Y202801D01*
X261608Y202802D01*
G37*
G36*
X330358Y202802D02*
X330358Y202802D01*
X330367Y202801D01*
X330455Y202822D01*
X330545Y202840D01*
X330552Y202845D01*
X330560Y202847D01*
X330633Y202901D01*
X330709Y202953D01*
X330713Y202960D01*
X330720Y202965D01*
X330767Y203043D01*
X330816Y203120D01*
X330817Y203129D01*
X330822Y203136D01*
X330849Y203300D01*
X330849Y204300D01*
X330848Y204308D01*
X330849Y204315D01*
X330849Y204316D01*
X330849Y204317D01*
X330828Y204405D01*
X330810Y204495D01*
X330805Y204502D01*
X330803Y204510D01*
X330749Y204583D01*
X330697Y204659D01*
X330690Y204663D01*
X330685Y204670D01*
X330607Y204717D01*
X330530Y204766D01*
X330521Y204767D01*
X330514Y204772D01*
X330350Y204799D01*
X322600Y204799D01*
X322592Y204798D01*
X322583Y204799D01*
X322495Y204778D01*
X322405Y204760D01*
X322398Y204755D01*
X322390Y204753D01*
X322317Y204699D01*
X322241Y204647D01*
X322237Y204640D01*
X322230Y204635D01*
X322183Y204557D01*
X322134Y204480D01*
X322133Y204471D01*
X322128Y204464D01*
X322101Y204300D01*
X322101Y203300D01*
X322102Y203292D01*
X322101Y203283D01*
X322122Y203195D01*
X322140Y203105D01*
X322145Y203098D01*
X322147Y203090D01*
X322201Y203017D01*
X322253Y202941D01*
X322260Y202937D01*
X322265Y202930D01*
X322343Y202883D01*
X322420Y202834D01*
X322429Y202833D01*
X322436Y202828D01*
X322600Y202801D01*
X330350Y202801D01*
X330358Y202802D01*
G37*
G36*
X330358Y198802D02*
X330358Y198802D01*
X330367Y198801D01*
X330455Y198822D01*
X330545Y198840D01*
X330552Y198845D01*
X330560Y198847D01*
X330633Y198901D01*
X330709Y198953D01*
X330713Y198960D01*
X330720Y198965D01*
X330767Y199043D01*
X330816Y199120D01*
X330817Y199129D01*
X330822Y199136D01*
X330849Y199300D01*
X330849Y200300D01*
X330848Y200308D01*
X330849Y200315D01*
X330849Y200316D01*
X330849Y200317D01*
X330828Y200405D01*
X330810Y200495D01*
X330805Y200502D01*
X330803Y200510D01*
X330749Y200583D01*
X330697Y200659D01*
X330690Y200663D01*
X330685Y200670D01*
X330607Y200717D01*
X330530Y200766D01*
X330521Y200767D01*
X330514Y200772D01*
X330350Y200799D01*
X322600Y200799D01*
X322592Y200798D01*
X322583Y200799D01*
X322495Y200778D01*
X322405Y200760D01*
X322398Y200755D01*
X322390Y200753D01*
X322317Y200699D01*
X322241Y200647D01*
X322237Y200640D01*
X322230Y200635D01*
X322183Y200557D01*
X322134Y200480D01*
X322133Y200471D01*
X322128Y200464D01*
X322101Y200300D01*
X322101Y199300D01*
X322102Y199292D01*
X322101Y199283D01*
X322122Y199195D01*
X322140Y199105D01*
X322145Y199098D01*
X322147Y199090D01*
X322201Y199017D01*
X322253Y198941D01*
X322260Y198937D01*
X322265Y198930D01*
X322343Y198883D01*
X322420Y198834D01*
X322429Y198833D01*
X322436Y198828D01*
X322600Y198801D01*
X330350Y198801D01*
X330358Y198802D01*
G37*
G36*
X261608Y198802D02*
X261608Y198802D01*
X261617Y198801D01*
X261705Y198822D01*
X261795Y198840D01*
X261802Y198845D01*
X261810Y198847D01*
X261883Y198901D01*
X261959Y198953D01*
X261963Y198960D01*
X261970Y198965D01*
X262017Y199043D01*
X262066Y199120D01*
X262067Y199129D01*
X262072Y199136D01*
X262099Y199300D01*
X262099Y200300D01*
X262098Y200308D01*
X262099Y200315D01*
X262099Y200316D01*
X262099Y200317D01*
X262078Y200405D01*
X262060Y200495D01*
X262055Y200502D01*
X262053Y200510D01*
X261999Y200583D01*
X261947Y200659D01*
X261940Y200663D01*
X261935Y200670D01*
X261857Y200717D01*
X261780Y200766D01*
X261771Y200767D01*
X261764Y200772D01*
X261600Y200799D01*
X253850Y200799D01*
X253842Y200798D01*
X253833Y200799D01*
X253745Y200778D01*
X253655Y200760D01*
X253648Y200755D01*
X253640Y200753D01*
X253567Y200699D01*
X253491Y200647D01*
X253487Y200640D01*
X253480Y200635D01*
X253433Y200557D01*
X253384Y200480D01*
X253383Y200471D01*
X253378Y200464D01*
X253351Y200300D01*
X253351Y199300D01*
X253352Y199292D01*
X253351Y199283D01*
X253372Y199195D01*
X253390Y199105D01*
X253395Y199098D01*
X253397Y199090D01*
X253451Y199017D01*
X253503Y198941D01*
X253510Y198937D01*
X253515Y198930D01*
X253593Y198883D01*
X253670Y198834D01*
X253679Y198833D01*
X253686Y198828D01*
X253850Y198801D01*
X261600Y198801D01*
X261608Y198802D01*
G37*
G36*
X330358Y194802D02*
X330358Y194802D01*
X330367Y194801D01*
X330455Y194822D01*
X330545Y194840D01*
X330552Y194845D01*
X330560Y194847D01*
X330633Y194901D01*
X330709Y194953D01*
X330713Y194960D01*
X330720Y194965D01*
X330767Y195043D01*
X330816Y195120D01*
X330817Y195129D01*
X330822Y195136D01*
X330849Y195300D01*
X330849Y196300D01*
X330848Y196308D01*
X330849Y196315D01*
X330849Y196316D01*
X330849Y196317D01*
X330828Y196405D01*
X330810Y196495D01*
X330805Y196502D01*
X330803Y196510D01*
X330749Y196583D01*
X330697Y196659D01*
X330690Y196663D01*
X330685Y196670D01*
X330607Y196717D01*
X330530Y196766D01*
X330521Y196767D01*
X330514Y196772D01*
X330350Y196799D01*
X322600Y196799D01*
X322592Y196798D01*
X322583Y196799D01*
X322495Y196778D01*
X322405Y196760D01*
X322398Y196755D01*
X322390Y196753D01*
X322317Y196699D01*
X322241Y196647D01*
X322237Y196640D01*
X322230Y196635D01*
X322183Y196557D01*
X322134Y196480D01*
X322133Y196471D01*
X322128Y196464D01*
X322101Y196300D01*
X322101Y195300D01*
X322102Y195292D01*
X322101Y195283D01*
X322122Y195195D01*
X322140Y195105D01*
X322145Y195098D01*
X322147Y195090D01*
X322201Y195017D01*
X322253Y194941D01*
X322260Y194937D01*
X322265Y194930D01*
X322343Y194883D01*
X322420Y194834D01*
X322429Y194833D01*
X322436Y194828D01*
X322600Y194801D01*
X330350Y194801D01*
X330358Y194802D01*
G37*
G36*
X261608Y194802D02*
X261608Y194802D01*
X261617Y194801D01*
X261705Y194822D01*
X261795Y194840D01*
X261802Y194845D01*
X261810Y194847D01*
X261883Y194901D01*
X261959Y194953D01*
X261963Y194960D01*
X261970Y194965D01*
X262017Y195043D01*
X262066Y195120D01*
X262067Y195129D01*
X262072Y195136D01*
X262099Y195300D01*
X262099Y196300D01*
X262098Y196308D01*
X262099Y196315D01*
X262099Y196316D01*
X262099Y196317D01*
X262078Y196405D01*
X262060Y196495D01*
X262055Y196502D01*
X262053Y196510D01*
X261999Y196583D01*
X261947Y196659D01*
X261940Y196663D01*
X261935Y196670D01*
X261857Y196717D01*
X261780Y196766D01*
X261771Y196767D01*
X261764Y196772D01*
X261600Y196799D01*
X253850Y196799D01*
X253842Y196798D01*
X253833Y196799D01*
X253745Y196778D01*
X253655Y196760D01*
X253648Y196755D01*
X253640Y196753D01*
X253567Y196699D01*
X253491Y196647D01*
X253487Y196640D01*
X253480Y196635D01*
X253433Y196557D01*
X253384Y196480D01*
X253383Y196471D01*
X253378Y196464D01*
X253351Y196300D01*
X253351Y195300D01*
X253352Y195292D01*
X253351Y195283D01*
X253372Y195195D01*
X253390Y195105D01*
X253395Y195098D01*
X253397Y195090D01*
X253451Y195017D01*
X253503Y194941D01*
X253510Y194937D01*
X253515Y194930D01*
X253593Y194883D01*
X253670Y194834D01*
X253679Y194833D01*
X253686Y194828D01*
X253850Y194801D01*
X261600Y194801D01*
X261608Y194802D01*
G37*
G36*
X330358Y190802D02*
X330358Y190802D01*
X330367Y190801D01*
X330455Y190822D01*
X330545Y190840D01*
X330552Y190845D01*
X330560Y190847D01*
X330633Y190901D01*
X330709Y190953D01*
X330713Y190960D01*
X330720Y190965D01*
X330767Y191043D01*
X330816Y191120D01*
X330817Y191129D01*
X330822Y191136D01*
X330849Y191300D01*
X330849Y192300D01*
X330848Y192308D01*
X330849Y192315D01*
X330849Y192316D01*
X330849Y192317D01*
X330828Y192405D01*
X330810Y192495D01*
X330805Y192502D01*
X330803Y192510D01*
X330749Y192583D01*
X330697Y192659D01*
X330690Y192663D01*
X330685Y192670D01*
X330607Y192717D01*
X330530Y192766D01*
X330521Y192767D01*
X330514Y192772D01*
X330350Y192799D01*
X322600Y192799D01*
X322592Y192798D01*
X322583Y192799D01*
X322495Y192778D01*
X322405Y192760D01*
X322398Y192755D01*
X322390Y192753D01*
X322317Y192699D01*
X322241Y192647D01*
X322237Y192640D01*
X322230Y192635D01*
X322183Y192557D01*
X322134Y192480D01*
X322133Y192471D01*
X322128Y192464D01*
X322101Y192300D01*
X322101Y191300D01*
X322102Y191292D01*
X322101Y191283D01*
X322122Y191195D01*
X322140Y191105D01*
X322145Y191098D01*
X322147Y191090D01*
X322201Y191017D01*
X322253Y190941D01*
X322260Y190937D01*
X322265Y190930D01*
X322343Y190883D01*
X322420Y190834D01*
X322429Y190833D01*
X322436Y190828D01*
X322600Y190801D01*
X330350Y190801D01*
X330358Y190802D01*
G37*
G36*
X261608Y174802D02*
X261608Y174802D01*
X261617Y174801D01*
X261705Y174822D01*
X261795Y174840D01*
X261802Y174845D01*
X261810Y174847D01*
X261883Y174901D01*
X261959Y174953D01*
X261963Y174960D01*
X261970Y174965D01*
X262017Y175043D01*
X262066Y175120D01*
X262067Y175129D01*
X262072Y175136D01*
X262099Y175300D01*
X262099Y176300D01*
X262098Y176308D01*
X262099Y176315D01*
X262099Y176316D01*
X262099Y176317D01*
X262078Y176405D01*
X262060Y176495D01*
X262055Y176502D01*
X262053Y176510D01*
X261999Y176583D01*
X261947Y176659D01*
X261940Y176663D01*
X261935Y176670D01*
X261857Y176717D01*
X261780Y176766D01*
X261771Y176767D01*
X261764Y176772D01*
X261600Y176799D01*
X253850Y176799D01*
X253842Y176798D01*
X253833Y176799D01*
X253745Y176778D01*
X253655Y176760D01*
X253648Y176755D01*
X253640Y176753D01*
X253567Y176699D01*
X253491Y176647D01*
X253487Y176640D01*
X253480Y176635D01*
X253433Y176557D01*
X253384Y176480D01*
X253383Y176471D01*
X253378Y176464D01*
X253351Y176300D01*
X253351Y175300D01*
X253352Y175292D01*
X253351Y175283D01*
X253372Y175195D01*
X253390Y175105D01*
X253395Y175098D01*
X253397Y175090D01*
X253451Y175017D01*
X253503Y174941D01*
X253510Y174937D01*
X253515Y174930D01*
X253593Y174883D01*
X253670Y174834D01*
X253679Y174833D01*
X253686Y174828D01*
X253850Y174801D01*
X261600Y174801D01*
X261608Y174802D01*
G37*
G36*
X261608Y190802D02*
X261608Y190802D01*
X261617Y190801D01*
X261705Y190822D01*
X261795Y190840D01*
X261802Y190845D01*
X261810Y190847D01*
X261883Y190901D01*
X261959Y190953D01*
X261963Y190960D01*
X261970Y190965D01*
X262017Y191043D01*
X262066Y191120D01*
X262067Y191129D01*
X262072Y191136D01*
X262099Y191300D01*
X262099Y192300D01*
X262098Y192308D01*
X262099Y192315D01*
X262099Y192316D01*
X262099Y192317D01*
X262078Y192405D01*
X262060Y192495D01*
X262055Y192502D01*
X262053Y192510D01*
X261999Y192583D01*
X261947Y192659D01*
X261940Y192663D01*
X261935Y192670D01*
X261857Y192717D01*
X261780Y192766D01*
X261771Y192767D01*
X261764Y192772D01*
X261600Y192799D01*
X253850Y192799D01*
X253842Y192798D01*
X253833Y192799D01*
X253745Y192778D01*
X253655Y192760D01*
X253648Y192755D01*
X253640Y192753D01*
X253567Y192699D01*
X253491Y192647D01*
X253487Y192640D01*
X253480Y192635D01*
X253433Y192557D01*
X253384Y192480D01*
X253383Y192471D01*
X253378Y192464D01*
X253351Y192300D01*
X253351Y191300D01*
X253352Y191292D01*
X253351Y191283D01*
X253372Y191195D01*
X253390Y191105D01*
X253395Y191098D01*
X253397Y191090D01*
X253451Y191017D01*
X253503Y190941D01*
X253510Y190937D01*
X253515Y190930D01*
X253593Y190883D01*
X253670Y190834D01*
X253679Y190833D01*
X253686Y190828D01*
X253850Y190801D01*
X261600Y190801D01*
X261608Y190802D01*
G37*
G36*
X261608Y186802D02*
X261608Y186802D01*
X261617Y186801D01*
X261705Y186822D01*
X261795Y186840D01*
X261802Y186845D01*
X261810Y186847D01*
X261883Y186901D01*
X261959Y186953D01*
X261963Y186960D01*
X261970Y186965D01*
X262017Y187043D01*
X262066Y187120D01*
X262067Y187129D01*
X262072Y187136D01*
X262099Y187300D01*
X262099Y188300D01*
X262098Y188308D01*
X262099Y188315D01*
X262099Y188316D01*
X262099Y188317D01*
X262078Y188405D01*
X262060Y188495D01*
X262055Y188502D01*
X262053Y188510D01*
X261999Y188583D01*
X261947Y188659D01*
X261940Y188663D01*
X261935Y188670D01*
X261857Y188717D01*
X261780Y188766D01*
X261771Y188767D01*
X261764Y188772D01*
X261600Y188799D01*
X253850Y188799D01*
X253842Y188798D01*
X253833Y188799D01*
X253745Y188778D01*
X253655Y188760D01*
X253648Y188755D01*
X253640Y188753D01*
X253567Y188699D01*
X253491Y188647D01*
X253487Y188640D01*
X253480Y188635D01*
X253433Y188557D01*
X253384Y188480D01*
X253383Y188471D01*
X253378Y188464D01*
X253351Y188300D01*
X253351Y187300D01*
X253352Y187292D01*
X253351Y187283D01*
X253372Y187195D01*
X253390Y187105D01*
X253395Y187098D01*
X253397Y187090D01*
X253451Y187017D01*
X253503Y186941D01*
X253510Y186937D01*
X253515Y186930D01*
X253593Y186883D01*
X253670Y186834D01*
X253679Y186833D01*
X253686Y186828D01*
X253850Y186801D01*
X261600Y186801D01*
X261608Y186802D01*
G37*
G36*
X330358Y186802D02*
X330358Y186802D01*
X330367Y186801D01*
X330455Y186822D01*
X330545Y186840D01*
X330552Y186845D01*
X330560Y186847D01*
X330633Y186901D01*
X330709Y186953D01*
X330713Y186960D01*
X330720Y186965D01*
X330767Y187043D01*
X330816Y187120D01*
X330817Y187129D01*
X330822Y187136D01*
X330849Y187300D01*
X330849Y188300D01*
X330848Y188308D01*
X330849Y188315D01*
X330849Y188316D01*
X330849Y188317D01*
X330828Y188405D01*
X330810Y188495D01*
X330805Y188502D01*
X330803Y188510D01*
X330749Y188583D01*
X330697Y188659D01*
X330690Y188663D01*
X330685Y188670D01*
X330607Y188717D01*
X330530Y188766D01*
X330521Y188767D01*
X330514Y188772D01*
X330350Y188799D01*
X322600Y188799D01*
X322592Y188798D01*
X322583Y188799D01*
X322495Y188778D01*
X322405Y188760D01*
X322398Y188755D01*
X322390Y188753D01*
X322317Y188699D01*
X322241Y188647D01*
X322237Y188640D01*
X322230Y188635D01*
X322183Y188557D01*
X322134Y188480D01*
X322133Y188471D01*
X322128Y188464D01*
X322101Y188300D01*
X322101Y187300D01*
X322102Y187292D01*
X322101Y187283D01*
X322122Y187195D01*
X322140Y187105D01*
X322145Y187098D01*
X322147Y187090D01*
X322201Y187017D01*
X322253Y186941D01*
X322260Y186937D01*
X322265Y186930D01*
X322343Y186883D01*
X322420Y186834D01*
X322429Y186833D01*
X322436Y186828D01*
X322600Y186801D01*
X330350Y186801D01*
X330358Y186802D01*
G37*
G36*
X261608Y182802D02*
X261608Y182802D01*
X261617Y182801D01*
X261705Y182822D01*
X261795Y182840D01*
X261802Y182845D01*
X261810Y182847D01*
X261883Y182901D01*
X261959Y182953D01*
X261963Y182960D01*
X261970Y182965D01*
X262017Y183043D01*
X262066Y183120D01*
X262067Y183129D01*
X262072Y183136D01*
X262099Y183300D01*
X262099Y184300D01*
X262098Y184308D01*
X262099Y184315D01*
X262099Y184316D01*
X262099Y184317D01*
X262078Y184405D01*
X262060Y184495D01*
X262055Y184502D01*
X262053Y184510D01*
X261999Y184583D01*
X261947Y184659D01*
X261940Y184663D01*
X261935Y184670D01*
X261857Y184717D01*
X261780Y184766D01*
X261771Y184767D01*
X261764Y184772D01*
X261600Y184799D01*
X253850Y184799D01*
X253842Y184798D01*
X253833Y184799D01*
X253745Y184778D01*
X253655Y184760D01*
X253648Y184755D01*
X253640Y184753D01*
X253567Y184699D01*
X253491Y184647D01*
X253487Y184640D01*
X253480Y184635D01*
X253433Y184557D01*
X253384Y184480D01*
X253383Y184471D01*
X253378Y184464D01*
X253351Y184300D01*
X253351Y183300D01*
X253352Y183292D01*
X253351Y183283D01*
X253372Y183195D01*
X253390Y183105D01*
X253395Y183098D01*
X253397Y183090D01*
X253451Y183017D01*
X253503Y182941D01*
X253510Y182937D01*
X253515Y182930D01*
X253593Y182883D01*
X253670Y182834D01*
X253679Y182833D01*
X253686Y182828D01*
X253850Y182801D01*
X261600Y182801D01*
X261608Y182802D01*
G37*
G36*
X330358Y182802D02*
X330358Y182802D01*
X330367Y182801D01*
X330455Y182822D01*
X330545Y182840D01*
X330552Y182845D01*
X330560Y182847D01*
X330633Y182901D01*
X330709Y182953D01*
X330713Y182960D01*
X330720Y182965D01*
X330767Y183043D01*
X330816Y183120D01*
X330817Y183129D01*
X330822Y183136D01*
X330849Y183300D01*
X330849Y184300D01*
X330848Y184308D01*
X330849Y184315D01*
X330849Y184316D01*
X330849Y184317D01*
X330828Y184405D01*
X330810Y184495D01*
X330805Y184502D01*
X330803Y184510D01*
X330749Y184583D01*
X330697Y184659D01*
X330690Y184663D01*
X330685Y184670D01*
X330607Y184717D01*
X330530Y184766D01*
X330521Y184767D01*
X330514Y184772D01*
X330350Y184799D01*
X322600Y184799D01*
X322592Y184798D01*
X322583Y184799D01*
X322495Y184778D01*
X322405Y184760D01*
X322398Y184755D01*
X322390Y184753D01*
X322317Y184699D01*
X322241Y184647D01*
X322237Y184640D01*
X322230Y184635D01*
X322183Y184557D01*
X322134Y184480D01*
X322133Y184471D01*
X322128Y184464D01*
X322101Y184300D01*
X322101Y183300D01*
X322102Y183292D01*
X322101Y183283D01*
X322122Y183195D01*
X322140Y183105D01*
X322145Y183098D01*
X322147Y183090D01*
X322201Y183017D01*
X322253Y182941D01*
X322260Y182937D01*
X322265Y182930D01*
X322343Y182883D01*
X322420Y182834D01*
X322429Y182833D01*
X322436Y182828D01*
X322600Y182801D01*
X330350Y182801D01*
X330358Y182802D01*
G37*
G36*
X261608Y178802D02*
X261608Y178802D01*
X261617Y178801D01*
X261705Y178822D01*
X261795Y178840D01*
X261802Y178845D01*
X261810Y178847D01*
X261883Y178901D01*
X261959Y178953D01*
X261963Y178960D01*
X261970Y178965D01*
X262017Y179043D01*
X262066Y179120D01*
X262067Y179129D01*
X262072Y179136D01*
X262099Y179300D01*
X262099Y180300D01*
X262098Y180308D01*
X262099Y180315D01*
X262099Y180316D01*
X262099Y180317D01*
X262078Y180405D01*
X262060Y180495D01*
X262055Y180502D01*
X262053Y180510D01*
X261999Y180583D01*
X261947Y180659D01*
X261940Y180663D01*
X261935Y180670D01*
X261857Y180717D01*
X261780Y180766D01*
X261771Y180767D01*
X261764Y180772D01*
X261600Y180799D01*
X253850Y180799D01*
X253842Y180798D01*
X253833Y180799D01*
X253745Y180778D01*
X253655Y180760D01*
X253648Y180755D01*
X253640Y180753D01*
X253567Y180699D01*
X253491Y180647D01*
X253487Y180640D01*
X253480Y180635D01*
X253433Y180557D01*
X253384Y180480D01*
X253383Y180471D01*
X253378Y180464D01*
X253351Y180300D01*
X253351Y179300D01*
X253352Y179292D01*
X253351Y179283D01*
X253372Y179195D01*
X253390Y179105D01*
X253395Y179098D01*
X253397Y179090D01*
X253451Y179017D01*
X253503Y178941D01*
X253510Y178937D01*
X253515Y178930D01*
X253593Y178883D01*
X253670Y178834D01*
X253679Y178833D01*
X253686Y178828D01*
X253850Y178801D01*
X261600Y178801D01*
X261608Y178802D01*
G37*
G36*
X330358Y178802D02*
X330358Y178802D01*
X330367Y178801D01*
X330455Y178822D01*
X330545Y178840D01*
X330552Y178845D01*
X330560Y178847D01*
X330633Y178901D01*
X330709Y178953D01*
X330713Y178960D01*
X330720Y178965D01*
X330767Y179043D01*
X330816Y179120D01*
X330817Y179129D01*
X330822Y179136D01*
X330849Y179300D01*
X330849Y180300D01*
X330848Y180308D01*
X330849Y180315D01*
X330849Y180316D01*
X330849Y180317D01*
X330828Y180405D01*
X330810Y180495D01*
X330805Y180502D01*
X330803Y180510D01*
X330749Y180583D01*
X330697Y180659D01*
X330690Y180663D01*
X330685Y180670D01*
X330607Y180717D01*
X330530Y180766D01*
X330521Y180767D01*
X330514Y180772D01*
X330350Y180799D01*
X322600Y180799D01*
X322592Y180798D01*
X322583Y180799D01*
X322495Y180778D01*
X322405Y180760D01*
X322398Y180755D01*
X322390Y180753D01*
X322317Y180699D01*
X322241Y180647D01*
X322237Y180640D01*
X322230Y180635D01*
X322183Y180557D01*
X322134Y180480D01*
X322133Y180471D01*
X322128Y180464D01*
X322101Y180300D01*
X322101Y179300D01*
X322102Y179292D01*
X322101Y179283D01*
X322122Y179195D01*
X322140Y179105D01*
X322145Y179098D01*
X322147Y179090D01*
X322201Y179017D01*
X322253Y178941D01*
X322260Y178937D01*
X322265Y178930D01*
X322343Y178883D01*
X322420Y178834D01*
X322429Y178833D01*
X322436Y178828D01*
X322600Y178801D01*
X330350Y178801D01*
X330358Y178802D01*
G37*
G36*
X330358Y174802D02*
X330358Y174802D01*
X330367Y174801D01*
X330455Y174822D01*
X330545Y174840D01*
X330552Y174845D01*
X330560Y174847D01*
X330633Y174901D01*
X330709Y174953D01*
X330713Y174960D01*
X330720Y174965D01*
X330767Y175043D01*
X330816Y175120D01*
X330817Y175129D01*
X330822Y175136D01*
X330849Y175300D01*
X330849Y176300D01*
X330848Y176308D01*
X330849Y176315D01*
X330849Y176316D01*
X330849Y176317D01*
X330828Y176405D01*
X330810Y176495D01*
X330805Y176502D01*
X330803Y176510D01*
X330749Y176583D01*
X330697Y176659D01*
X330690Y176663D01*
X330685Y176670D01*
X330607Y176717D01*
X330530Y176766D01*
X330521Y176767D01*
X330514Y176772D01*
X330350Y176799D01*
X322600Y176799D01*
X322592Y176798D01*
X322583Y176799D01*
X322495Y176778D01*
X322405Y176760D01*
X322398Y176755D01*
X322390Y176753D01*
X322317Y176699D01*
X322241Y176647D01*
X322237Y176640D01*
X322230Y176635D01*
X322183Y176557D01*
X322134Y176480D01*
X322133Y176471D01*
X322128Y176464D01*
X322101Y176300D01*
X322101Y175300D01*
X322102Y175292D01*
X322101Y175283D01*
X322122Y175195D01*
X322140Y175105D01*
X322145Y175098D01*
X322147Y175090D01*
X322201Y175017D01*
X322253Y174941D01*
X322260Y174937D01*
X322265Y174930D01*
X322343Y174883D01*
X322420Y174834D01*
X322429Y174833D01*
X322436Y174828D01*
X322600Y174801D01*
X330350Y174801D01*
X330358Y174802D01*
G37*
G36*
X330358Y170802D02*
X330358Y170802D01*
X330367Y170801D01*
X330455Y170822D01*
X330545Y170840D01*
X330552Y170845D01*
X330560Y170847D01*
X330633Y170901D01*
X330709Y170953D01*
X330713Y170960D01*
X330720Y170965D01*
X330767Y171043D01*
X330816Y171120D01*
X330817Y171129D01*
X330822Y171136D01*
X330849Y171300D01*
X330849Y172300D01*
X330848Y172308D01*
X330849Y172315D01*
X330849Y172316D01*
X330849Y172317D01*
X330828Y172405D01*
X330810Y172495D01*
X330805Y172502D01*
X330803Y172510D01*
X330749Y172583D01*
X330697Y172659D01*
X330690Y172663D01*
X330685Y172670D01*
X330607Y172717D01*
X330530Y172766D01*
X330521Y172767D01*
X330514Y172772D01*
X330350Y172799D01*
X322600Y172799D01*
X322592Y172798D01*
X322583Y172799D01*
X322495Y172778D01*
X322405Y172760D01*
X322398Y172755D01*
X322390Y172753D01*
X322317Y172699D01*
X322241Y172647D01*
X322237Y172640D01*
X322230Y172635D01*
X322183Y172557D01*
X322134Y172480D01*
X322133Y172471D01*
X322128Y172464D01*
X322101Y172300D01*
X322101Y171300D01*
X322102Y171292D01*
X322101Y171283D01*
X322122Y171195D01*
X322140Y171105D01*
X322145Y171098D01*
X322147Y171090D01*
X322201Y171017D01*
X322253Y170941D01*
X322260Y170937D01*
X322265Y170930D01*
X322343Y170883D01*
X322420Y170834D01*
X322429Y170833D01*
X322436Y170828D01*
X322600Y170801D01*
X330350Y170801D01*
X330358Y170802D01*
G37*
G36*
X261608Y170802D02*
X261608Y170802D01*
X261617Y170801D01*
X261705Y170822D01*
X261795Y170840D01*
X261802Y170845D01*
X261810Y170847D01*
X261883Y170901D01*
X261959Y170953D01*
X261963Y170960D01*
X261970Y170965D01*
X262017Y171043D01*
X262066Y171120D01*
X262067Y171129D01*
X262072Y171136D01*
X262099Y171300D01*
X262099Y172300D01*
X262098Y172308D01*
X262099Y172315D01*
X262099Y172316D01*
X262099Y172317D01*
X262078Y172405D01*
X262060Y172495D01*
X262055Y172502D01*
X262053Y172510D01*
X261999Y172583D01*
X261947Y172659D01*
X261940Y172663D01*
X261935Y172670D01*
X261857Y172717D01*
X261780Y172766D01*
X261771Y172767D01*
X261764Y172772D01*
X261600Y172799D01*
X253850Y172799D01*
X253842Y172798D01*
X253833Y172799D01*
X253745Y172778D01*
X253655Y172760D01*
X253648Y172755D01*
X253640Y172753D01*
X253567Y172699D01*
X253491Y172647D01*
X253487Y172640D01*
X253480Y172635D01*
X253433Y172557D01*
X253384Y172480D01*
X253383Y172471D01*
X253378Y172464D01*
X253351Y172300D01*
X253351Y171300D01*
X253352Y171292D01*
X253351Y171283D01*
X253372Y171195D01*
X253390Y171105D01*
X253395Y171098D01*
X253397Y171090D01*
X253451Y171017D01*
X253503Y170941D01*
X253510Y170937D01*
X253515Y170930D01*
X253593Y170883D01*
X253670Y170834D01*
X253679Y170833D01*
X253686Y170828D01*
X253850Y170801D01*
X261600Y170801D01*
X261608Y170802D01*
G37*
G36*
X330358Y166802D02*
X330358Y166802D01*
X330367Y166801D01*
X330455Y166822D01*
X330545Y166840D01*
X330552Y166845D01*
X330560Y166847D01*
X330633Y166901D01*
X330709Y166953D01*
X330713Y166960D01*
X330720Y166965D01*
X330767Y167043D01*
X330816Y167120D01*
X330817Y167129D01*
X330822Y167136D01*
X330849Y167300D01*
X330849Y168300D01*
X330848Y168308D01*
X330849Y168315D01*
X330849Y168316D01*
X330849Y168317D01*
X330828Y168405D01*
X330810Y168495D01*
X330805Y168502D01*
X330803Y168510D01*
X330749Y168583D01*
X330697Y168659D01*
X330690Y168663D01*
X330685Y168670D01*
X330607Y168717D01*
X330530Y168766D01*
X330521Y168767D01*
X330514Y168772D01*
X330350Y168799D01*
X322600Y168799D01*
X322592Y168798D01*
X322583Y168799D01*
X322495Y168778D01*
X322405Y168760D01*
X322398Y168755D01*
X322390Y168753D01*
X322317Y168699D01*
X322241Y168647D01*
X322237Y168640D01*
X322230Y168635D01*
X322183Y168557D01*
X322134Y168480D01*
X322133Y168471D01*
X322128Y168464D01*
X322101Y168300D01*
X322101Y167300D01*
X322102Y167292D01*
X322101Y167283D01*
X322122Y167195D01*
X322140Y167105D01*
X322145Y167098D01*
X322147Y167090D01*
X322201Y167017D01*
X322253Y166941D01*
X322260Y166937D01*
X322265Y166930D01*
X322343Y166883D01*
X322420Y166834D01*
X322429Y166833D01*
X322436Y166828D01*
X322600Y166801D01*
X330350Y166801D01*
X330358Y166802D01*
G37*
G36*
X261608Y166802D02*
X261608Y166802D01*
X261617Y166801D01*
X261705Y166822D01*
X261795Y166840D01*
X261802Y166845D01*
X261810Y166847D01*
X261883Y166901D01*
X261959Y166953D01*
X261963Y166960D01*
X261970Y166965D01*
X262017Y167043D01*
X262066Y167120D01*
X262067Y167129D01*
X262072Y167136D01*
X262099Y167300D01*
X262099Y168300D01*
X262098Y168308D01*
X262099Y168315D01*
X262099Y168316D01*
X262099Y168317D01*
X262078Y168405D01*
X262060Y168495D01*
X262055Y168502D01*
X262053Y168510D01*
X261999Y168583D01*
X261947Y168659D01*
X261940Y168663D01*
X261935Y168670D01*
X261857Y168717D01*
X261780Y168766D01*
X261771Y168767D01*
X261764Y168772D01*
X261600Y168799D01*
X253850Y168799D01*
X253842Y168798D01*
X253833Y168799D01*
X253745Y168778D01*
X253655Y168760D01*
X253648Y168755D01*
X253640Y168753D01*
X253567Y168699D01*
X253491Y168647D01*
X253487Y168640D01*
X253480Y168635D01*
X253433Y168557D01*
X253384Y168480D01*
X253383Y168471D01*
X253378Y168464D01*
X253351Y168300D01*
X253351Y167300D01*
X253352Y167292D01*
X253351Y167283D01*
X253372Y167195D01*
X253390Y167105D01*
X253395Y167098D01*
X253397Y167090D01*
X253451Y167017D01*
X253503Y166941D01*
X253510Y166937D01*
X253515Y166930D01*
X253593Y166883D01*
X253670Y166834D01*
X253679Y166833D01*
X253686Y166828D01*
X253850Y166801D01*
X261600Y166801D01*
X261608Y166802D01*
G37*
G36*
X261608Y162802D02*
X261608Y162802D01*
X261617Y162801D01*
X261705Y162822D01*
X261795Y162840D01*
X261802Y162845D01*
X261810Y162847D01*
X261883Y162901D01*
X261959Y162953D01*
X261963Y162960D01*
X261970Y162965D01*
X262017Y163043D01*
X262066Y163120D01*
X262067Y163129D01*
X262072Y163136D01*
X262099Y163300D01*
X262099Y164300D01*
X262098Y164308D01*
X262099Y164315D01*
X262099Y164316D01*
X262099Y164317D01*
X262078Y164405D01*
X262060Y164495D01*
X262055Y164502D01*
X262053Y164510D01*
X261999Y164583D01*
X261947Y164659D01*
X261940Y164663D01*
X261935Y164670D01*
X261857Y164717D01*
X261780Y164766D01*
X261771Y164767D01*
X261764Y164772D01*
X261600Y164799D01*
X253850Y164799D01*
X253842Y164798D01*
X253833Y164799D01*
X253745Y164778D01*
X253655Y164760D01*
X253648Y164755D01*
X253640Y164753D01*
X253567Y164699D01*
X253491Y164647D01*
X253487Y164640D01*
X253480Y164635D01*
X253433Y164557D01*
X253384Y164480D01*
X253383Y164471D01*
X253378Y164464D01*
X253351Y164300D01*
X253351Y163300D01*
X253352Y163292D01*
X253351Y163283D01*
X253372Y163195D01*
X253390Y163105D01*
X253395Y163098D01*
X253397Y163090D01*
X253451Y163017D01*
X253503Y162941D01*
X253510Y162937D01*
X253515Y162930D01*
X253593Y162883D01*
X253670Y162834D01*
X253679Y162833D01*
X253686Y162828D01*
X253850Y162801D01*
X261600Y162801D01*
X261608Y162802D01*
G37*
G36*
X330358Y162802D02*
X330358Y162802D01*
X330367Y162801D01*
X330455Y162822D01*
X330545Y162840D01*
X330552Y162845D01*
X330560Y162847D01*
X330633Y162901D01*
X330709Y162953D01*
X330713Y162960D01*
X330720Y162965D01*
X330767Y163043D01*
X330816Y163120D01*
X330817Y163129D01*
X330822Y163136D01*
X330849Y163300D01*
X330849Y164300D01*
X330848Y164308D01*
X330849Y164315D01*
X330849Y164316D01*
X330849Y164317D01*
X330828Y164405D01*
X330810Y164495D01*
X330805Y164502D01*
X330803Y164510D01*
X330749Y164583D01*
X330697Y164659D01*
X330690Y164663D01*
X330685Y164670D01*
X330607Y164717D01*
X330530Y164766D01*
X330521Y164767D01*
X330514Y164772D01*
X330350Y164799D01*
X322600Y164799D01*
X322592Y164798D01*
X322583Y164799D01*
X322495Y164778D01*
X322405Y164760D01*
X322398Y164755D01*
X322390Y164753D01*
X322317Y164699D01*
X322241Y164647D01*
X322237Y164640D01*
X322230Y164635D01*
X322183Y164557D01*
X322134Y164480D01*
X322133Y164471D01*
X322128Y164464D01*
X322101Y164300D01*
X322101Y163300D01*
X322102Y163292D01*
X322101Y163283D01*
X322122Y163195D01*
X322140Y163105D01*
X322145Y163098D01*
X322147Y163090D01*
X322201Y163017D01*
X322253Y162941D01*
X322260Y162937D01*
X322265Y162930D01*
X322343Y162883D01*
X322420Y162834D01*
X322429Y162833D01*
X322436Y162828D01*
X322600Y162801D01*
X330350Y162801D01*
X330358Y162802D01*
G37*
G36*
X330358Y158802D02*
X330358Y158802D01*
X330367Y158801D01*
X330455Y158822D01*
X330545Y158840D01*
X330552Y158845D01*
X330560Y158847D01*
X330633Y158901D01*
X330709Y158953D01*
X330713Y158960D01*
X330720Y158965D01*
X330767Y159043D01*
X330816Y159120D01*
X330817Y159129D01*
X330822Y159136D01*
X330849Y159300D01*
X330849Y160300D01*
X330848Y160308D01*
X330849Y160315D01*
X330849Y160316D01*
X330849Y160317D01*
X330828Y160405D01*
X330810Y160495D01*
X330805Y160502D01*
X330803Y160510D01*
X330749Y160583D01*
X330697Y160659D01*
X330690Y160663D01*
X330685Y160670D01*
X330607Y160717D01*
X330530Y160766D01*
X330521Y160767D01*
X330514Y160772D01*
X330350Y160799D01*
X322600Y160799D01*
X322592Y160798D01*
X322583Y160799D01*
X322495Y160778D01*
X322405Y160760D01*
X322398Y160755D01*
X322390Y160753D01*
X322317Y160699D01*
X322241Y160647D01*
X322237Y160640D01*
X322230Y160635D01*
X322183Y160557D01*
X322134Y160480D01*
X322133Y160471D01*
X322128Y160464D01*
X322101Y160300D01*
X322101Y159300D01*
X322102Y159292D01*
X322101Y159283D01*
X322122Y159195D01*
X322140Y159105D01*
X322145Y159098D01*
X322147Y159090D01*
X322201Y159017D01*
X322253Y158941D01*
X322260Y158937D01*
X322265Y158930D01*
X322343Y158883D01*
X322420Y158834D01*
X322429Y158833D01*
X322436Y158828D01*
X322600Y158801D01*
X330350Y158801D01*
X330358Y158802D01*
G37*
G36*
X261608Y158802D02*
X261608Y158802D01*
X261617Y158801D01*
X261705Y158822D01*
X261795Y158840D01*
X261802Y158845D01*
X261810Y158847D01*
X261883Y158901D01*
X261959Y158953D01*
X261963Y158960D01*
X261970Y158965D01*
X262017Y159043D01*
X262066Y159120D01*
X262067Y159129D01*
X262072Y159136D01*
X262099Y159300D01*
X262099Y160300D01*
X262098Y160308D01*
X262099Y160315D01*
X262099Y160316D01*
X262099Y160317D01*
X262078Y160405D01*
X262060Y160495D01*
X262055Y160502D01*
X262053Y160510D01*
X261999Y160583D01*
X261947Y160659D01*
X261940Y160663D01*
X261935Y160670D01*
X261857Y160717D01*
X261780Y160766D01*
X261771Y160767D01*
X261764Y160772D01*
X261600Y160799D01*
X253850Y160799D01*
X253842Y160798D01*
X253833Y160799D01*
X253745Y160778D01*
X253655Y160760D01*
X253648Y160755D01*
X253640Y160753D01*
X253567Y160699D01*
X253491Y160647D01*
X253487Y160640D01*
X253480Y160635D01*
X253433Y160557D01*
X253384Y160480D01*
X253383Y160471D01*
X253378Y160464D01*
X253351Y160300D01*
X253351Y159300D01*
X253352Y159292D01*
X253351Y159283D01*
X253372Y159195D01*
X253390Y159105D01*
X253395Y159098D01*
X253397Y159090D01*
X253451Y159017D01*
X253503Y158941D01*
X253510Y158937D01*
X253515Y158930D01*
X253593Y158883D01*
X253670Y158834D01*
X253679Y158833D01*
X253686Y158828D01*
X253850Y158801D01*
X261600Y158801D01*
X261608Y158802D01*
G37*
G36*
X261608Y154802D02*
X261608Y154802D01*
X261617Y154801D01*
X261705Y154822D01*
X261795Y154840D01*
X261802Y154845D01*
X261810Y154847D01*
X261883Y154901D01*
X261959Y154953D01*
X261963Y154960D01*
X261970Y154965D01*
X262017Y155043D01*
X262066Y155120D01*
X262067Y155129D01*
X262072Y155136D01*
X262099Y155300D01*
X262099Y156300D01*
X262098Y156308D01*
X262099Y156315D01*
X262099Y156316D01*
X262099Y156317D01*
X262078Y156405D01*
X262060Y156495D01*
X262055Y156502D01*
X262053Y156510D01*
X261999Y156583D01*
X261947Y156659D01*
X261940Y156663D01*
X261935Y156670D01*
X261857Y156717D01*
X261780Y156766D01*
X261771Y156767D01*
X261764Y156772D01*
X261600Y156799D01*
X253850Y156799D01*
X253842Y156798D01*
X253833Y156799D01*
X253745Y156778D01*
X253655Y156760D01*
X253648Y156755D01*
X253640Y156753D01*
X253567Y156699D01*
X253491Y156647D01*
X253487Y156640D01*
X253480Y156635D01*
X253433Y156557D01*
X253384Y156480D01*
X253383Y156471D01*
X253378Y156464D01*
X253351Y156300D01*
X253351Y155300D01*
X253352Y155292D01*
X253351Y155283D01*
X253372Y155195D01*
X253390Y155105D01*
X253395Y155098D01*
X253397Y155090D01*
X253451Y155017D01*
X253503Y154941D01*
X253510Y154937D01*
X253515Y154930D01*
X253593Y154883D01*
X253670Y154834D01*
X253679Y154833D01*
X253686Y154828D01*
X253850Y154801D01*
X261600Y154801D01*
X261608Y154802D01*
G37*
G36*
X330358Y154802D02*
X330358Y154802D01*
X330367Y154801D01*
X330455Y154822D01*
X330545Y154840D01*
X330552Y154845D01*
X330560Y154847D01*
X330633Y154901D01*
X330709Y154953D01*
X330713Y154960D01*
X330720Y154965D01*
X330767Y155043D01*
X330816Y155120D01*
X330817Y155129D01*
X330822Y155136D01*
X330849Y155300D01*
X330849Y156300D01*
X330848Y156308D01*
X330849Y156315D01*
X330849Y156316D01*
X330849Y156317D01*
X330828Y156405D01*
X330810Y156495D01*
X330805Y156502D01*
X330803Y156510D01*
X330749Y156583D01*
X330697Y156659D01*
X330690Y156663D01*
X330685Y156670D01*
X330607Y156717D01*
X330530Y156766D01*
X330521Y156767D01*
X330514Y156772D01*
X330350Y156799D01*
X322600Y156799D01*
X322592Y156798D01*
X322583Y156799D01*
X322495Y156778D01*
X322405Y156760D01*
X322398Y156755D01*
X322390Y156753D01*
X322317Y156699D01*
X322241Y156647D01*
X322237Y156640D01*
X322230Y156635D01*
X322183Y156557D01*
X322134Y156480D01*
X322133Y156471D01*
X322128Y156464D01*
X322101Y156300D01*
X322101Y155300D01*
X322102Y155292D01*
X322101Y155283D01*
X322122Y155195D01*
X322140Y155105D01*
X322145Y155098D01*
X322147Y155090D01*
X322201Y155017D01*
X322253Y154941D01*
X322260Y154937D01*
X322265Y154930D01*
X322343Y154883D01*
X322420Y154834D01*
X322429Y154833D01*
X322436Y154828D01*
X322600Y154801D01*
X330350Y154801D01*
X330358Y154802D01*
G37*
G36*
X330358Y150802D02*
X330358Y150802D01*
X330367Y150801D01*
X330455Y150822D01*
X330545Y150840D01*
X330552Y150845D01*
X330560Y150847D01*
X330633Y150901D01*
X330709Y150953D01*
X330713Y150960D01*
X330720Y150965D01*
X330767Y151043D01*
X330816Y151120D01*
X330817Y151129D01*
X330822Y151136D01*
X330849Y151300D01*
X330849Y152300D01*
X330848Y152308D01*
X330849Y152315D01*
X330849Y152316D01*
X330849Y152317D01*
X330828Y152405D01*
X330810Y152495D01*
X330805Y152502D01*
X330803Y152510D01*
X330749Y152583D01*
X330697Y152659D01*
X330690Y152663D01*
X330685Y152670D01*
X330607Y152717D01*
X330530Y152766D01*
X330521Y152767D01*
X330514Y152772D01*
X330350Y152799D01*
X322600Y152799D01*
X322592Y152798D01*
X322583Y152799D01*
X322495Y152778D01*
X322405Y152760D01*
X322398Y152755D01*
X322390Y152753D01*
X322317Y152699D01*
X322241Y152647D01*
X322237Y152640D01*
X322230Y152635D01*
X322183Y152557D01*
X322134Y152480D01*
X322133Y152471D01*
X322128Y152464D01*
X322101Y152300D01*
X322101Y151300D01*
X322102Y151292D01*
X322101Y151283D01*
X322122Y151195D01*
X322140Y151105D01*
X322145Y151098D01*
X322147Y151090D01*
X322201Y151017D01*
X322253Y150941D01*
X322260Y150937D01*
X322265Y150930D01*
X322343Y150883D01*
X322420Y150834D01*
X322429Y150833D01*
X322436Y150828D01*
X322600Y150801D01*
X330350Y150801D01*
X330358Y150802D01*
G37*
G36*
X261608Y150802D02*
X261608Y150802D01*
X261617Y150801D01*
X261705Y150822D01*
X261795Y150840D01*
X261802Y150845D01*
X261810Y150847D01*
X261883Y150901D01*
X261959Y150953D01*
X261963Y150960D01*
X261970Y150965D01*
X262017Y151043D01*
X262066Y151120D01*
X262067Y151129D01*
X262072Y151136D01*
X262099Y151300D01*
X262099Y152300D01*
X262098Y152308D01*
X262099Y152315D01*
X262099Y152316D01*
X262099Y152317D01*
X262078Y152405D01*
X262060Y152495D01*
X262055Y152502D01*
X262053Y152510D01*
X261999Y152583D01*
X261947Y152659D01*
X261940Y152663D01*
X261935Y152670D01*
X261857Y152717D01*
X261780Y152766D01*
X261771Y152767D01*
X261764Y152772D01*
X261600Y152799D01*
X253850Y152799D01*
X253842Y152798D01*
X253833Y152799D01*
X253745Y152778D01*
X253655Y152760D01*
X253648Y152755D01*
X253640Y152753D01*
X253567Y152699D01*
X253491Y152647D01*
X253487Y152640D01*
X253480Y152635D01*
X253433Y152557D01*
X253384Y152480D01*
X253383Y152471D01*
X253378Y152464D01*
X253351Y152300D01*
X253351Y151300D01*
X253352Y151292D01*
X253351Y151283D01*
X253372Y151195D01*
X253390Y151105D01*
X253395Y151098D01*
X253397Y151090D01*
X253451Y151017D01*
X253503Y150941D01*
X253510Y150937D01*
X253515Y150930D01*
X253593Y150883D01*
X253670Y150834D01*
X253679Y150833D01*
X253686Y150828D01*
X253850Y150801D01*
X261600Y150801D01*
X261608Y150802D01*
G37*
G36*
X302608Y207802D02*
X302608Y207802D01*
X302617Y207801D01*
X302705Y207822D01*
X302795Y207840D01*
X302802Y207845D01*
X302810Y207847D01*
X302883Y207901D01*
X302959Y207953D01*
X302963Y207960D01*
X302970Y207965D01*
X303017Y208043D01*
X303066Y208120D01*
X303067Y208129D01*
X303072Y208136D01*
X303099Y208300D01*
X303099Y216050D01*
X303098Y216058D01*
X303099Y216067D01*
X303078Y216155D01*
X303060Y216245D01*
X303055Y216252D01*
X303053Y216260D01*
X302999Y216333D01*
X302947Y216409D01*
X302940Y216413D01*
X302935Y216420D01*
X302857Y216467D01*
X302780Y216516D01*
X302771Y216517D01*
X302764Y216522D01*
X302600Y216549D01*
X301600Y216549D01*
X301592Y216548D01*
X301583Y216549D01*
X301495Y216528D01*
X301405Y216510D01*
X301398Y216505D01*
X301390Y216503D01*
X301317Y216449D01*
X301241Y216397D01*
X301237Y216390D01*
X301230Y216385D01*
X301183Y216307D01*
X301134Y216230D01*
X301133Y216221D01*
X301128Y216214D01*
X301101Y216050D01*
X301101Y208300D01*
X301102Y208292D01*
X301101Y208283D01*
X301122Y208195D01*
X301140Y208105D01*
X301145Y208098D01*
X301147Y208090D01*
X301201Y208017D01*
X301253Y207941D01*
X301260Y207937D01*
X301265Y207930D01*
X301343Y207883D01*
X301420Y207834D01*
X301429Y207833D01*
X301436Y207828D01*
X301600Y207801D01*
X302600Y207801D01*
X302608Y207802D01*
G37*
G36*
X282608Y207802D02*
X282608Y207802D01*
X282617Y207801D01*
X282705Y207822D01*
X282795Y207840D01*
X282802Y207845D01*
X282810Y207847D01*
X282883Y207901D01*
X282959Y207953D01*
X282963Y207960D01*
X282970Y207965D01*
X283017Y208043D01*
X283066Y208120D01*
X283067Y208129D01*
X283072Y208136D01*
X283099Y208300D01*
X283099Y216050D01*
X283098Y216058D01*
X283099Y216067D01*
X283078Y216155D01*
X283060Y216245D01*
X283055Y216252D01*
X283053Y216260D01*
X282999Y216333D01*
X282947Y216409D01*
X282940Y216413D01*
X282935Y216420D01*
X282857Y216467D01*
X282780Y216516D01*
X282771Y216517D01*
X282764Y216522D01*
X282600Y216549D01*
X281600Y216549D01*
X281592Y216548D01*
X281583Y216549D01*
X281495Y216528D01*
X281405Y216510D01*
X281398Y216505D01*
X281390Y216503D01*
X281317Y216449D01*
X281241Y216397D01*
X281237Y216390D01*
X281230Y216385D01*
X281183Y216307D01*
X281134Y216230D01*
X281133Y216221D01*
X281128Y216214D01*
X281101Y216050D01*
X281101Y208300D01*
X281102Y208292D01*
X281101Y208283D01*
X281122Y208195D01*
X281140Y208105D01*
X281145Y208098D01*
X281147Y208090D01*
X281201Y208017D01*
X281253Y207941D01*
X281260Y207937D01*
X281265Y207930D01*
X281343Y207883D01*
X281420Y207834D01*
X281429Y207833D01*
X281436Y207828D01*
X281600Y207801D01*
X282600Y207801D01*
X282608Y207802D01*
G37*
G36*
X314608Y207802D02*
X314608Y207802D01*
X314617Y207801D01*
X314705Y207822D01*
X314795Y207840D01*
X314802Y207845D01*
X314810Y207847D01*
X314883Y207901D01*
X314959Y207953D01*
X314963Y207960D01*
X314970Y207965D01*
X315017Y208043D01*
X315066Y208120D01*
X315067Y208129D01*
X315072Y208136D01*
X315099Y208300D01*
X315099Y216050D01*
X315098Y216058D01*
X315099Y216067D01*
X315078Y216155D01*
X315060Y216245D01*
X315055Y216252D01*
X315053Y216260D01*
X314999Y216333D01*
X314947Y216409D01*
X314940Y216413D01*
X314935Y216420D01*
X314857Y216467D01*
X314780Y216516D01*
X314771Y216517D01*
X314764Y216522D01*
X314600Y216549D01*
X313600Y216549D01*
X313592Y216548D01*
X313583Y216549D01*
X313495Y216528D01*
X313405Y216510D01*
X313398Y216505D01*
X313390Y216503D01*
X313317Y216449D01*
X313241Y216397D01*
X313237Y216390D01*
X313230Y216385D01*
X313183Y216307D01*
X313134Y216230D01*
X313133Y216221D01*
X313128Y216214D01*
X313101Y216050D01*
X313101Y208300D01*
X313102Y208292D01*
X313101Y208283D01*
X313122Y208195D01*
X313140Y208105D01*
X313145Y208098D01*
X313147Y208090D01*
X313201Y208017D01*
X313253Y207941D01*
X313260Y207937D01*
X313265Y207930D01*
X313343Y207883D01*
X313420Y207834D01*
X313429Y207833D01*
X313436Y207828D01*
X313600Y207801D01*
X314600Y207801D01*
X314608Y207802D01*
G37*
G36*
X274608Y207802D02*
X274608Y207802D01*
X274617Y207801D01*
X274705Y207822D01*
X274795Y207840D01*
X274802Y207845D01*
X274810Y207847D01*
X274883Y207901D01*
X274959Y207953D01*
X274963Y207960D01*
X274970Y207965D01*
X275017Y208043D01*
X275066Y208120D01*
X275067Y208129D01*
X275072Y208136D01*
X275099Y208300D01*
X275099Y216050D01*
X275098Y216058D01*
X275099Y216067D01*
X275078Y216155D01*
X275060Y216245D01*
X275055Y216252D01*
X275053Y216260D01*
X274999Y216333D01*
X274947Y216409D01*
X274940Y216413D01*
X274935Y216420D01*
X274857Y216467D01*
X274780Y216516D01*
X274771Y216517D01*
X274764Y216522D01*
X274600Y216549D01*
X273600Y216549D01*
X273592Y216548D01*
X273583Y216549D01*
X273495Y216528D01*
X273405Y216510D01*
X273398Y216505D01*
X273390Y216503D01*
X273317Y216449D01*
X273241Y216397D01*
X273237Y216390D01*
X273230Y216385D01*
X273183Y216307D01*
X273134Y216230D01*
X273133Y216221D01*
X273128Y216214D01*
X273101Y216050D01*
X273101Y208300D01*
X273102Y208292D01*
X273101Y208283D01*
X273122Y208195D01*
X273140Y208105D01*
X273145Y208098D01*
X273147Y208090D01*
X273201Y208017D01*
X273253Y207941D01*
X273260Y207937D01*
X273265Y207930D01*
X273343Y207883D01*
X273420Y207834D01*
X273429Y207833D01*
X273436Y207828D01*
X273600Y207801D01*
X274600Y207801D01*
X274608Y207802D01*
G37*
G36*
X294608Y207802D02*
X294608Y207802D01*
X294617Y207801D01*
X294705Y207822D01*
X294795Y207840D01*
X294802Y207845D01*
X294810Y207847D01*
X294883Y207901D01*
X294959Y207953D01*
X294963Y207960D01*
X294970Y207965D01*
X295017Y208043D01*
X295066Y208120D01*
X295067Y208129D01*
X295072Y208136D01*
X295099Y208300D01*
X295099Y216050D01*
X295098Y216058D01*
X295099Y216067D01*
X295078Y216155D01*
X295060Y216245D01*
X295055Y216252D01*
X295053Y216260D01*
X294999Y216333D01*
X294947Y216409D01*
X294940Y216413D01*
X294935Y216420D01*
X294857Y216467D01*
X294780Y216516D01*
X294771Y216517D01*
X294764Y216522D01*
X294600Y216549D01*
X293600Y216549D01*
X293592Y216548D01*
X293583Y216549D01*
X293495Y216528D01*
X293405Y216510D01*
X293398Y216505D01*
X293390Y216503D01*
X293317Y216449D01*
X293241Y216397D01*
X293237Y216390D01*
X293230Y216385D01*
X293183Y216307D01*
X293134Y216230D01*
X293133Y216221D01*
X293128Y216214D01*
X293101Y216050D01*
X293101Y208300D01*
X293102Y208292D01*
X293101Y208283D01*
X293122Y208195D01*
X293140Y208105D01*
X293145Y208098D01*
X293147Y208090D01*
X293201Y208017D01*
X293253Y207941D01*
X293260Y207937D01*
X293265Y207930D01*
X293343Y207883D01*
X293420Y207834D01*
X293429Y207833D01*
X293436Y207828D01*
X293600Y207801D01*
X294600Y207801D01*
X294608Y207802D01*
G37*
G36*
X318608Y207802D02*
X318608Y207802D01*
X318617Y207801D01*
X318705Y207822D01*
X318795Y207840D01*
X318802Y207845D01*
X318810Y207847D01*
X318883Y207901D01*
X318959Y207953D01*
X318963Y207960D01*
X318970Y207965D01*
X319017Y208043D01*
X319066Y208120D01*
X319067Y208129D01*
X319072Y208136D01*
X319099Y208300D01*
X319099Y216050D01*
X319098Y216058D01*
X319099Y216067D01*
X319078Y216155D01*
X319060Y216245D01*
X319055Y216252D01*
X319053Y216260D01*
X318999Y216333D01*
X318947Y216409D01*
X318940Y216413D01*
X318935Y216420D01*
X318857Y216467D01*
X318780Y216516D01*
X318771Y216517D01*
X318764Y216522D01*
X318600Y216549D01*
X317600Y216549D01*
X317592Y216548D01*
X317583Y216549D01*
X317495Y216528D01*
X317405Y216510D01*
X317398Y216505D01*
X317390Y216503D01*
X317317Y216449D01*
X317241Y216397D01*
X317237Y216390D01*
X317230Y216385D01*
X317183Y216307D01*
X317134Y216230D01*
X317133Y216221D01*
X317128Y216214D01*
X317101Y216050D01*
X317101Y208300D01*
X317102Y208292D01*
X317101Y208283D01*
X317122Y208195D01*
X317140Y208105D01*
X317145Y208098D01*
X317147Y208090D01*
X317201Y208017D01*
X317253Y207941D01*
X317260Y207937D01*
X317265Y207930D01*
X317343Y207883D01*
X317420Y207834D01*
X317429Y207833D01*
X317436Y207828D01*
X317600Y207801D01*
X318600Y207801D01*
X318608Y207802D01*
G37*
G36*
X290608Y207802D02*
X290608Y207802D01*
X290617Y207801D01*
X290705Y207822D01*
X290795Y207840D01*
X290802Y207845D01*
X290810Y207847D01*
X290883Y207901D01*
X290959Y207953D01*
X290963Y207960D01*
X290970Y207965D01*
X291017Y208043D01*
X291066Y208120D01*
X291067Y208129D01*
X291072Y208136D01*
X291099Y208300D01*
X291099Y216050D01*
X291098Y216058D01*
X291099Y216067D01*
X291078Y216155D01*
X291060Y216245D01*
X291055Y216252D01*
X291053Y216260D01*
X290999Y216333D01*
X290947Y216409D01*
X290940Y216413D01*
X290935Y216420D01*
X290857Y216467D01*
X290780Y216516D01*
X290771Y216517D01*
X290764Y216522D01*
X290600Y216549D01*
X289600Y216549D01*
X289592Y216548D01*
X289583Y216549D01*
X289495Y216528D01*
X289405Y216510D01*
X289398Y216505D01*
X289390Y216503D01*
X289317Y216449D01*
X289241Y216397D01*
X289237Y216390D01*
X289230Y216385D01*
X289183Y216307D01*
X289134Y216230D01*
X289133Y216221D01*
X289128Y216214D01*
X289101Y216050D01*
X289101Y208300D01*
X289102Y208292D01*
X289101Y208283D01*
X289122Y208195D01*
X289140Y208105D01*
X289145Y208098D01*
X289147Y208090D01*
X289201Y208017D01*
X289253Y207941D01*
X289260Y207937D01*
X289265Y207930D01*
X289343Y207883D01*
X289420Y207834D01*
X289429Y207833D01*
X289436Y207828D01*
X289600Y207801D01*
X290600Y207801D01*
X290608Y207802D01*
G37*
G36*
X270608Y207802D02*
X270608Y207802D01*
X270617Y207801D01*
X270705Y207822D01*
X270795Y207840D01*
X270802Y207845D01*
X270810Y207847D01*
X270883Y207901D01*
X270959Y207953D01*
X270963Y207960D01*
X270970Y207965D01*
X271017Y208043D01*
X271066Y208120D01*
X271067Y208129D01*
X271072Y208136D01*
X271099Y208300D01*
X271099Y216050D01*
X271098Y216058D01*
X271099Y216067D01*
X271078Y216155D01*
X271060Y216245D01*
X271055Y216252D01*
X271053Y216260D01*
X270999Y216333D01*
X270947Y216409D01*
X270940Y216413D01*
X270935Y216420D01*
X270857Y216467D01*
X270780Y216516D01*
X270771Y216517D01*
X270764Y216522D01*
X270600Y216549D01*
X269600Y216549D01*
X269592Y216548D01*
X269583Y216549D01*
X269495Y216528D01*
X269405Y216510D01*
X269398Y216505D01*
X269390Y216503D01*
X269317Y216449D01*
X269241Y216397D01*
X269237Y216390D01*
X269230Y216385D01*
X269183Y216307D01*
X269134Y216230D01*
X269133Y216221D01*
X269128Y216214D01*
X269101Y216050D01*
X269101Y208300D01*
X269102Y208292D01*
X269101Y208283D01*
X269122Y208195D01*
X269140Y208105D01*
X269145Y208098D01*
X269147Y208090D01*
X269201Y208017D01*
X269253Y207941D01*
X269260Y207937D01*
X269265Y207930D01*
X269343Y207883D01*
X269420Y207834D01*
X269429Y207833D01*
X269436Y207828D01*
X269600Y207801D01*
X270600Y207801D01*
X270608Y207802D01*
G37*
G36*
X306608Y207802D02*
X306608Y207802D01*
X306617Y207801D01*
X306705Y207822D01*
X306795Y207840D01*
X306802Y207845D01*
X306810Y207847D01*
X306883Y207901D01*
X306959Y207953D01*
X306963Y207960D01*
X306970Y207965D01*
X307017Y208043D01*
X307066Y208120D01*
X307067Y208129D01*
X307072Y208136D01*
X307099Y208300D01*
X307099Y216050D01*
X307098Y216058D01*
X307099Y216067D01*
X307078Y216155D01*
X307060Y216245D01*
X307055Y216252D01*
X307053Y216260D01*
X306999Y216333D01*
X306947Y216409D01*
X306940Y216413D01*
X306935Y216420D01*
X306857Y216467D01*
X306780Y216516D01*
X306771Y216517D01*
X306764Y216522D01*
X306600Y216549D01*
X305600Y216549D01*
X305592Y216548D01*
X305583Y216549D01*
X305495Y216528D01*
X305405Y216510D01*
X305398Y216505D01*
X305390Y216503D01*
X305317Y216449D01*
X305241Y216397D01*
X305237Y216390D01*
X305230Y216385D01*
X305183Y216307D01*
X305134Y216230D01*
X305133Y216221D01*
X305128Y216214D01*
X305101Y216050D01*
X305101Y208300D01*
X305102Y208292D01*
X305101Y208283D01*
X305122Y208195D01*
X305140Y208105D01*
X305145Y208098D01*
X305147Y208090D01*
X305201Y208017D01*
X305253Y207941D01*
X305260Y207937D01*
X305265Y207930D01*
X305343Y207883D01*
X305420Y207834D01*
X305429Y207833D01*
X305436Y207828D01*
X305600Y207801D01*
X306600Y207801D01*
X306608Y207802D01*
G37*
G36*
X298608Y207802D02*
X298608Y207802D01*
X298617Y207801D01*
X298705Y207822D01*
X298795Y207840D01*
X298802Y207845D01*
X298810Y207847D01*
X298883Y207901D01*
X298959Y207953D01*
X298963Y207960D01*
X298970Y207965D01*
X299017Y208043D01*
X299066Y208120D01*
X299067Y208129D01*
X299072Y208136D01*
X299099Y208300D01*
X299099Y216050D01*
X299098Y216058D01*
X299099Y216067D01*
X299078Y216155D01*
X299060Y216245D01*
X299055Y216252D01*
X299053Y216260D01*
X298999Y216333D01*
X298947Y216409D01*
X298940Y216413D01*
X298935Y216420D01*
X298857Y216467D01*
X298780Y216516D01*
X298771Y216517D01*
X298764Y216522D01*
X298600Y216549D01*
X297600Y216549D01*
X297592Y216548D01*
X297583Y216549D01*
X297495Y216528D01*
X297405Y216510D01*
X297398Y216505D01*
X297390Y216503D01*
X297317Y216449D01*
X297241Y216397D01*
X297237Y216390D01*
X297230Y216385D01*
X297183Y216307D01*
X297134Y216230D01*
X297133Y216221D01*
X297128Y216214D01*
X297101Y216050D01*
X297101Y208300D01*
X297102Y208292D01*
X297101Y208283D01*
X297122Y208195D01*
X297140Y208105D01*
X297145Y208098D01*
X297147Y208090D01*
X297201Y208017D01*
X297253Y207941D01*
X297260Y207937D01*
X297265Y207930D01*
X297343Y207883D01*
X297420Y207834D01*
X297429Y207833D01*
X297436Y207828D01*
X297600Y207801D01*
X298600Y207801D01*
X298608Y207802D01*
G37*
G36*
X310608Y207802D02*
X310608Y207802D01*
X310617Y207801D01*
X310705Y207822D01*
X310795Y207840D01*
X310802Y207845D01*
X310810Y207847D01*
X310883Y207901D01*
X310959Y207953D01*
X310963Y207960D01*
X310970Y207965D01*
X311017Y208043D01*
X311066Y208120D01*
X311067Y208129D01*
X311072Y208136D01*
X311099Y208300D01*
X311099Y216050D01*
X311098Y216058D01*
X311099Y216067D01*
X311078Y216155D01*
X311060Y216245D01*
X311055Y216252D01*
X311053Y216260D01*
X310999Y216333D01*
X310947Y216409D01*
X310940Y216413D01*
X310935Y216420D01*
X310857Y216467D01*
X310780Y216516D01*
X310771Y216517D01*
X310764Y216522D01*
X310600Y216549D01*
X309600Y216549D01*
X309592Y216548D01*
X309583Y216549D01*
X309495Y216528D01*
X309405Y216510D01*
X309398Y216505D01*
X309390Y216503D01*
X309317Y216449D01*
X309241Y216397D01*
X309237Y216390D01*
X309230Y216385D01*
X309183Y216307D01*
X309134Y216230D01*
X309133Y216221D01*
X309128Y216214D01*
X309101Y216050D01*
X309101Y208300D01*
X309102Y208292D01*
X309101Y208283D01*
X309122Y208195D01*
X309140Y208105D01*
X309145Y208098D01*
X309147Y208090D01*
X309201Y208017D01*
X309253Y207941D01*
X309260Y207937D01*
X309265Y207930D01*
X309343Y207883D01*
X309420Y207834D01*
X309429Y207833D01*
X309436Y207828D01*
X309600Y207801D01*
X310600Y207801D01*
X310608Y207802D01*
G37*
G36*
X286608Y207802D02*
X286608Y207802D01*
X286617Y207801D01*
X286705Y207822D01*
X286795Y207840D01*
X286802Y207845D01*
X286810Y207847D01*
X286883Y207901D01*
X286959Y207953D01*
X286963Y207960D01*
X286970Y207965D01*
X287017Y208043D01*
X287066Y208120D01*
X287067Y208129D01*
X287072Y208136D01*
X287099Y208300D01*
X287099Y216050D01*
X287098Y216058D01*
X287099Y216067D01*
X287078Y216155D01*
X287060Y216245D01*
X287055Y216252D01*
X287053Y216260D01*
X286999Y216333D01*
X286947Y216409D01*
X286940Y216413D01*
X286935Y216420D01*
X286857Y216467D01*
X286780Y216516D01*
X286771Y216517D01*
X286764Y216522D01*
X286600Y216549D01*
X285600Y216549D01*
X285592Y216548D01*
X285583Y216549D01*
X285495Y216528D01*
X285405Y216510D01*
X285398Y216505D01*
X285390Y216503D01*
X285317Y216449D01*
X285241Y216397D01*
X285237Y216390D01*
X285230Y216385D01*
X285183Y216307D01*
X285134Y216230D01*
X285133Y216221D01*
X285128Y216214D01*
X285101Y216050D01*
X285101Y208300D01*
X285102Y208292D01*
X285101Y208283D01*
X285122Y208195D01*
X285140Y208105D01*
X285145Y208098D01*
X285147Y208090D01*
X285201Y208017D01*
X285253Y207941D01*
X285260Y207937D01*
X285265Y207930D01*
X285343Y207883D01*
X285420Y207834D01*
X285429Y207833D01*
X285436Y207828D01*
X285600Y207801D01*
X286600Y207801D01*
X286608Y207802D01*
G37*
G36*
X278608Y207802D02*
X278608Y207802D01*
X278617Y207801D01*
X278705Y207822D01*
X278795Y207840D01*
X278802Y207845D01*
X278810Y207847D01*
X278883Y207901D01*
X278959Y207953D01*
X278963Y207960D01*
X278970Y207965D01*
X279017Y208043D01*
X279066Y208120D01*
X279067Y208129D01*
X279072Y208136D01*
X279099Y208300D01*
X279099Y216050D01*
X279098Y216058D01*
X279099Y216067D01*
X279078Y216155D01*
X279060Y216245D01*
X279055Y216252D01*
X279053Y216260D01*
X278999Y216333D01*
X278947Y216409D01*
X278940Y216413D01*
X278935Y216420D01*
X278857Y216467D01*
X278780Y216516D01*
X278771Y216517D01*
X278764Y216522D01*
X278600Y216549D01*
X277600Y216549D01*
X277592Y216548D01*
X277583Y216549D01*
X277495Y216528D01*
X277405Y216510D01*
X277398Y216505D01*
X277390Y216503D01*
X277317Y216449D01*
X277241Y216397D01*
X277237Y216390D01*
X277230Y216385D01*
X277183Y216307D01*
X277134Y216230D01*
X277133Y216221D01*
X277128Y216214D01*
X277101Y216050D01*
X277101Y208300D01*
X277102Y208292D01*
X277101Y208283D01*
X277122Y208195D01*
X277140Y208105D01*
X277145Y208098D01*
X277147Y208090D01*
X277201Y208017D01*
X277253Y207941D01*
X277260Y207937D01*
X277265Y207930D01*
X277343Y207883D01*
X277420Y207834D01*
X277429Y207833D01*
X277436Y207828D01*
X277600Y207801D01*
X278600Y207801D01*
X278608Y207802D01*
G37*
G36*
X266608Y207802D02*
X266608Y207802D01*
X266617Y207801D01*
X266705Y207822D01*
X266795Y207840D01*
X266802Y207845D01*
X266810Y207847D01*
X266883Y207901D01*
X266959Y207953D01*
X266963Y207960D01*
X266970Y207965D01*
X267017Y208043D01*
X267066Y208120D01*
X267067Y208129D01*
X267072Y208136D01*
X267099Y208300D01*
X267099Y216050D01*
X267098Y216058D01*
X267099Y216067D01*
X267078Y216155D01*
X267060Y216245D01*
X267055Y216252D01*
X267053Y216260D01*
X266999Y216333D01*
X266947Y216409D01*
X266940Y216413D01*
X266935Y216420D01*
X266857Y216467D01*
X266780Y216516D01*
X266771Y216517D01*
X266764Y216522D01*
X266600Y216549D01*
X265600Y216549D01*
X265592Y216548D01*
X265583Y216549D01*
X265495Y216528D01*
X265405Y216510D01*
X265398Y216505D01*
X265390Y216503D01*
X265317Y216449D01*
X265241Y216397D01*
X265237Y216390D01*
X265230Y216385D01*
X265183Y216307D01*
X265134Y216230D01*
X265133Y216221D01*
X265128Y216214D01*
X265101Y216050D01*
X265101Y208300D01*
X265102Y208292D01*
X265101Y208283D01*
X265122Y208195D01*
X265140Y208105D01*
X265145Y208098D01*
X265147Y208090D01*
X265201Y208017D01*
X265253Y207941D01*
X265260Y207937D01*
X265265Y207930D01*
X265343Y207883D01*
X265420Y207834D01*
X265429Y207833D01*
X265436Y207828D01*
X265600Y207801D01*
X266600Y207801D01*
X266608Y207802D01*
G37*
G36*
X306608Y139052D02*
X306608Y139052D01*
X306617Y139051D01*
X306705Y139072D01*
X306795Y139090D01*
X306802Y139095D01*
X306810Y139097D01*
X306883Y139151D01*
X306959Y139203D01*
X306963Y139210D01*
X306970Y139215D01*
X307017Y139293D01*
X307066Y139370D01*
X307067Y139379D01*
X307072Y139386D01*
X307099Y139550D01*
X307099Y147300D01*
X307098Y147308D01*
X307099Y147317D01*
X307078Y147405D01*
X307060Y147495D01*
X307055Y147502D01*
X307053Y147510D01*
X306999Y147583D01*
X306947Y147659D01*
X306940Y147663D01*
X306935Y147670D01*
X306857Y147717D01*
X306780Y147766D01*
X306771Y147767D01*
X306764Y147772D01*
X306600Y147799D01*
X305600Y147799D01*
X305592Y147798D01*
X305583Y147799D01*
X305495Y147778D01*
X305405Y147760D01*
X305398Y147755D01*
X305390Y147753D01*
X305317Y147699D01*
X305241Y147647D01*
X305237Y147640D01*
X305230Y147635D01*
X305183Y147557D01*
X305134Y147480D01*
X305133Y147471D01*
X305128Y147464D01*
X305101Y147300D01*
X305101Y139550D01*
X305102Y139542D01*
X305101Y139533D01*
X305122Y139445D01*
X305140Y139355D01*
X305145Y139348D01*
X305147Y139340D01*
X305201Y139267D01*
X305253Y139191D01*
X305260Y139187D01*
X305265Y139180D01*
X305343Y139133D01*
X305420Y139084D01*
X305429Y139083D01*
X305436Y139078D01*
X305600Y139051D01*
X306600Y139051D01*
X306608Y139052D01*
G37*
G36*
X318608Y139052D02*
X318608Y139052D01*
X318617Y139051D01*
X318705Y139072D01*
X318795Y139090D01*
X318802Y139095D01*
X318810Y139097D01*
X318883Y139151D01*
X318959Y139203D01*
X318963Y139210D01*
X318970Y139215D01*
X319017Y139293D01*
X319066Y139370D01*
X319067Y139379D01*
X319072Y139386D01*
X319099Y139550D01*
X319099Y147300D01*
X319098Y147308D01*
X319099Y147317D01*
X319078Y147405D01*
X319060Y147495D01*
X319055Y147502D01*
X319053Y147510D01*
X318999Y147583D01*
X318947Y147659D01*
X318940Y147663D01*
X318935Y147670D01*
X318857Y147717D01*
X318780Y147766D01*
X318771Y147767D01*
X318764Y147772D01*
X318600Y147799D01*
X317600Y147799D01*
X317592Y147798D01*
X317583Y147799D01*
X317495Y147778D01*
X317405Y147760D01*
X317398Y147755D01*
X317390Y147753D01*
X317317Y147699D01*
X317241Y147647D01*
X317237Y147640D01*
X317230Y147635D01*
X317183Y147557D01*
X317134Y147480D01*
X317133Y147471D01*
X317128Y147464D01*
X317101Y147300D01*
X317101Y139550D01*
X317102Y139542D01*
X317101Y139533D01*
X317122Y139445D01*
X317140Y139355D01*
X317145Y139348D01*
X317147Y139340D01*
X317201Y139267D01*
X317253Y139191D01*
X317260Y139187D01*
X317265Y139180D01*
X317343Y139133D01*
X317420Y139084D01*
X317429Y139083D01*
X317436Y139078D01*
X317600Y139051D01*
X318600Y139051D01*
X318608Y139052D01*
G37*
G36*
X270608Y139052D02*
X270608Y139052D01*
X270617Y139051D01*
X270705Y139072D01*
X270795Y139090D01*
X270802Y139095D01*
X270810Y139097D01*
X270883Y139151D01*
X270959Y139203D01*
X270963Y139210D01*
X270970Y139215D01*
X271017Y139293D01*
X271066Y139370D01*
X271067Y139379D01*
X271072Y139386D01*
X271099Y139550D01*
X271099Y147300D01*
X271098Y147308D01*
X271099Y147317D01*
X271078Y147405D01*
X271060Y147495D01*
X271055Y147502D01*
X271053Y147510D01*
X270999Y147583D01*
X270947Y147659D01*
X270940Y147663D01*
X270935Y147670D01*
X270857Y147717D01*
X270780Y147766D01*
X270771Y147767D01*
X270764Y147772D01*
X270600Y147799D01*
X269600Y147799D01*
X269592Y147798D01*
X269583Y147799D01*
X269495Y147778D01*
X269405Y147760D01*
X269398Y147755D01*
X269390Y147753D01*
X269317Y147699D01*
X269241Y147647D01*
X269237Y147640D01*
X269230Y147635D01*
X269183Y147557D01*
X269134Y147480D01*
X269133Y147471D01*
X269128Y147464D01*
X269101Y147300D01*
X269101Y139550D01*
X269102Y139542D01*
X269101Y139533D01*
X269122Y139445D01*
X269140Y139355D01*
X269145Y139348D01*
X269147Y139340D01*
X269201Y139267D01*
X269253Y139191D01*
X269260Y139187D01*
X269265Y139180D01*
X269343Y139133D01*
X269420Y139084D01*
X269429Y139083D01*
X269436Y139078D01*
X269600Y139051D01*
X270600Y139051D01*
X270608Y139052D01*
G37*
G36*
X294608Y139052D02*
X294608Y139052D01*
X294617Y139051D01*
X294705Y139072D01*
X294795Y139090D01*
X294802Y139095D01*
X294810Y139097D01*
X294883Y139151D01*
X294959Y139203D01*
X294963Y139210D01*
X294970Y139215D01*
X295017Y139293D01*
X295066Y139370D01*
X295067Y139379D01*
X295072Y139386D01*
X295099Y139550D01*
X295099Y147300D01*
X295098Y147308D01*
X295099Y147317D01*
X295078Y147405D01*
X295060Y147495D01*
X295055Y147502D01*
X295053Y147510D01*
X294999Y147583D01*
X294947Y147659D01*
X294940Y147663D01*
X294935Y147670D01*
X294857Y147717D01*
X294780Y147766D01*
X294771Y147767D01*
X294764Y147772D01*
X294600Y147799D01*
X293600Y147799D01*
X293592Y147798D01*
X293583Y147799D01*
X293495Y147778D01*
X293405Y147760D01*
X293398Y147755D01*
X293390Y147753D01*
X293317Y147699D01*
X293241Y147647D01*
X293237Y147640D01*
X293230Y147635D01*
X293183Y147557D01*
X293134Y147480D01*
X293133Y147471D01*
X293128Y147464D01*
X293101Y147300D01*
X293101Y139550D01*
X293102Y139542D01*
X293101Y139533D01*
X293122Y139445D01*
X293140Y139355D01*
X293145Y139348D01*
X293147Y139340D01*
X293201Y139267D01*
X293253Y139191D01*
X293260Y139187D01*
X293265Y139180D01*
X293343Y139133D01*
X293420Y139084D01*
X293429Y139083D01*
X293436Y139078D01*
X293600Y139051D01*
X294600Y139051D01*
X294608Y139052D01*
G37*
G36*
X310608Y139052D02*
X310608Y139052D01*
X310617Y139051D01*
X310705Y139072D01*
X310795Y139090D01*
X310802Y139095D01*
X310810Y139097D01*
X310883Y139151D01*
X310959Y139203D01*
X310963Y139210D01*
X310970Y139215D01*
X311017Y139293D01*
X311066Y139370D01*
X311067Y139379D01*
X311072Y139386D01*
X311099Y139550D01*
X311099Y147300D01*
X311098Y147308D01*
X311099Y147317D01*
X311078Y147405D01*
X311060Y147495D01*
X311055Y147502D01*
X311053Y147510D01*
X310999Y147583D01*
X310947Y147659D01*
X310940Y147663D01*
X310935Y147670D01*
X310857Y147717D01*
X310780Y147766D01*
X310771Y147767D01*
X310764Y147772D01*
X310600Y147799D01*
X309600Y147799D01*
X309592Y147798D01*
X309583Y147799D01*
X309495Y147778D01*
X309405Y147760D01*
X309398Y147755D01*
X309390Y147753D01*
X309317Y147699D01*
X309241Y147647D01*
X309237Y147640D01*
X309230Y147635D01*
X309183Y147557D01*
X309134Y147480D01*
X309133Y147471D01*
X309128Y147464D01*
X309101Y147300D01*
X309101Y139550D01*
X309102Y139542D01*
X309101Y139533D01*
X309122Y139445D01*
X309140Y139355D01*
X309145Y139348D01*
X309147Y139340D01*
X309201Y139267D01*
X309253Y139191D01*
X309260Y139187D01*
X309265Y139180D01*
X309343Y139133D01*
X309420Y139084D01*
X309429Y139083D01*
X309436Y139078D01*
X309600Y139051D01*
X310600Y139051D01*
X310608Y139052D01*
G37*
G36*
X286608Y139052D02*
X286608Y139052D01*
X286617Y139051D01*
X286705Y139072D01*
X286795Y139090D01*
X286802Y139095D01*
X286810Y139097D01*
X286883Y139151D01*
X286959Y139203D01*
X286963Y139210D01*
X286970Y139215D01*
X287017Y139293D01*
X287066Y139370D01*
X287067Y139379D01*
X287072Y139386D01*
X287099Y139550D01*
X287099Y147300D01*
X287098Y147308D01*
X287099Y147317D01*
X287078Y147405D01*
X287060Y147495D01*
X287055Y147502D01*
X287053Y147510D01*
X286999Y147583D01*
X286947Y147659D01*
X286940Y147663D01*
X286935Y147670D01*
X286857Y147717D01*
X286780Y147766D01*
X286771Y147767D01*
X286764Y147772D01*
X286600Y147799D01*
X285600Y147799D01*
X285592Y147798D01*
X285583Y147799D01*
X285495Y147778D01*
X285405Y147760D01*
X285398Y147755D01*
X285390Y147753D01*
X285317Y147699D01*
X285241Y147647D01*
X285237Y147640D01*
X285230Y147635D01*
X285183Y147557D01*
X285134Y147480D01*
X285133Y147471D01*
X285128Y147464D01*
X285101Y147300D01*
X285101Y139550D01*
X285102Y139542D01*
X285101Y139533D01*
X285122Y139445D01*
X285140Y139355D01*
X285145Y139348D01*
X285147Y139340D01*
X285201Y139267D01*
X285253Y139191D01*
X285260Y139187D01*
X285265Y139180D01*
X285343Y139133D01*
X285420Y139084D01*
X285429Y139083D01*
X285436Y139078D01*
X285600Y139051D01*
X286600Y139051D01*
X286608Y139052D01*
G37*
G36*
X314608Y139052D02*
X314608Y139052D01*
X314617Y139051D01*
X314705Y139072D01*
X314795Y139090D01*
X314802Y139095D01*
X314810Y139097D01*
X314883Y139151D01*
X314959Y139203D01*
X314963Y139210D01*
X314970Y139215D01*
X315017Y139293D01*
X315066Y139370D01*
X315067Y139379D01*
X315072Y139386D01*
X315099Y139550D01*
X315099Y147300D01*
X315098Y147308D01*
X315099Y147317D01*
X315078Y147405D01*
X315060Y147495D01*
X315055Y147502D01*
X315053Y147510D01*
X314999Y147583D01*
X314947Y147659D01*
X314940Y147663D01*
X314935Y147670D01*
X314857Y147717D01*
X314780Y147766D01*
X314771Y147767D01*
X314764Y147772D01*
X314600Y147799D01*
X313600Y147799D01*
X313592Y147798D01*
X313583Y147799D01*
X313495Y147778D01*
X313405Y147760D01*
X313398Y147755D01*
X313390Y147753D01*
X313317Y147699D01*
X313241Y147647D01*
X313237Y147640D01*
X313230Y147635D01*
X313183Y147557D01*
X313134Y147480D01*
X313133Y147471D01*
X313128Y147464D01*
X313101Y147300D01*
X313101Y139550D01*
X313102Y139542D01*
X313101Y139533D01*
X313122Y139445D01*
X313140Y139355D01*
X313145Y139348D01*
X313147Y139340D01*
X313201Y139267D01*
X313253Y139191D01*
X313260Y139187D01*
X313265Y139180D01*
X313343Y139133D01*
X313420Y139084D01*
X313429Y139083D01*
X313436Y139078D01*
X313600Y139051D01*
X314600Y139051D01*
X314608Y139052D01*
G37*
G36*
X282608Y139052D02*
X282608Y139052D01*
X282617Y139051D01*
X282705Y139072D01*
X282795Y139090D01*
X282802Y139095D01*
X282810Y139097D01*
X282883Y139151D01*
X282959Y139203D01*
X282963Y139210D01*
X282970Y139215D01*
X283017Y139293D01*
X283066Y139370D01*
X283067Y139379D01*
X283072Y139386D01*
X283099Y139550D01*
X283099Y147300D01*
X283098Y147308D01*
X283099Y147317D01*
X283078Y147405D01*
X283060Y147495D01*
X283055Y147502D01*
X283053Y147510D01*
X282999Y147583D01*
X282947Y147659D01*
X282940Y147663D01*
X282935Y147670D01*
X282857Y147717D01*
X282780Y147766D01*
X282771Y147767D01*
X282764Y147772D01*
X282600Y147799D01*
X281600Y147799D01*
X281592Y147798D01*
X281583Y147799D01*
X281495Y147778D01*
X281405Y147760D01*
X281398Y147755D01*
X281390Y147753D01*
X281317Y147699D01*
X281241Y147647D01*
X281237Y147640D01*
X281230Y147635D01*
X281183Y147557D01*
X281134Y147480D01*
X281133Y147471D01*
X281128Y147464D01*
X281101Y147300D01*
X281101Y139550D01*
X281102Y139542D01*
X281101Y139533D01*
X281122Y139445D01*
X281140Y139355D01*
X281145Y139348D01*
X281147Y139340D01*
X281201Y139267D01*
X281253Y139191D01*
X281260Y139187D01*
X281265Y139180D01*
X281343Y139133D01*
X281420Y139084D01*
X281429Y139083D01*
X281436Y139078D01*
X281600Y139051D01*
X282600Y139051D01*
X282608Y139052D01*
G37*
G36*
X278608Y139052D02*
X278608Y139052D01*
X278617Y139051D01*
X278705Y139072D01*
X278795Y139090D01*
X278802Y139095D01*
X278810Y139097D01*
X278883Y139151D01*
X278959Y139203D01*
X278963Y139210D01*
X278970Y139215D01*
X279017Y139293D01*
X279066Y139370D01*
X279067Y139379D01*
X279072Y139386D01*
X279099Y139550D01*
X279099Y147300D01*
X279098Y147308D01*
X279099Y147317D01*
X279078Y147405D01*
X279060Y147495D01*
X279055Y147502D01*
X279053Y147510D01*
X278999Y147583D01*
X278947Y147659D01*
X278940Y147663D01*
X278935Y147670D01*
X278857Y147717D01*
X278780Y147766D01*
X278771Y147767D01*
X278764Y147772D01*
X278600Y147799D01*
X277600Y147799D01*
X277592Y147798D01*
X277583Y147799D01*
X277495Y147778D01*
X277405Y147760D01*
X277398Y147755D01*
X277390Y147753D01*
X277317Y147699D01*
X277241Y147647D01*
X277237Y147640D01*
X277230Y147635D01*
X277183Y147557D01*
X277134Y147480D01*
X277133Y147471D01*
X277128Y147464D01*
X277101Y147300D01*
X277101Y139550D01*
X277102Y139542D01*
X277101Y139533D01*
X277122Y139445D01*
X277140Y139355D01*
X277145Y139348D01*
X277147Y139340D01*
X277201Y139267D01*
X277253Y139191D01*
X277260Y139187D01*
X277265Y139180D01*
X277343Y139133D01*
X277420Y139084D01*
X277429Y139083D01*
X277436Y139078D01*
X277600Y139051D01*
X278600Y139051D01*
X278608Y139052D01*
G37*
G36*
X302608Y139052D02*
X302608Y139052D01*
X302617Y139051D01*
X302705Y139072D01*
X302795Y139090D01*
X302802Y139095D01*
X302810Y139097D01*
X302883Y139151D01*
X302959Y139203D01*
X302963Y139210D01*
X302970Y139215D01*
X303017Y139293D01*
X303066Y139370D01*
X303067Y139379D01*
X303072Y139386D01*
X303099Y139550D01*
X303099Y147300D01*
X303098Y147308D01*
X303099Y147317D01*
X303078Y147405D01*
X303060Y147495D01*
X303055Y147502D01*
X303053Y147510D01*
X302999Y147583D01*
X302947Y147659D01*
X302940Y147663D01*
X302935Y147670D01*
X302857Y147717D01*
X302780Y147766D01*
X302771Y147767D01*
X302764Y147772D01*
X302600Y147799D01*
X301600Y147799D01*
X301592Y147798D01*
X301583Y147799D01*
X301495Y147778D01*
X301405Y147760D01*
X301398Y147755D01*
X301390Y147753D01*
X301317Y147699D01*
X301241Y147647D01*
X301237Y147640D01*
X301230Y147635D01*
X301183Y147557D01*
X301134Y147480D01*
X301133Y147471D01*
X301128Y147464D01*
X301101Y147300D01*
X301101Y139550D01*
X301102Y139542D01*
X301101Y139533D01*
X301122Y139445D01*
X301140Y139355D01*
X301145Y139348D01*
X301147Y139340D01*
X301201Y139267D01*
X301253Y139191D01*
X301260Y139187D01*
X301265Y139180D01*
X301343Y139133D01*
X301420Y139084D01*
X301429Y139083D01*
X301436Y139078D01*
X301600Y139051D01*
X302600Y139051D01*
X302608Y139052D01*
G37*
G36*
X274608Y139052D02*
X274608Y139052D01*
X274617Y139051D01*
X274705Y139072D01*
X274795Y139090D01*
X274802Y139095D01*
X274810Y139097D01*
X274883Y139151D01*
X274959Y139203D01*
X274963Y139210D01*
X274970Y139215D01*
X275017Y139293D01*
X275066Y139370D01*
X275067Y139379D01*
X275072Y139386D01*
X275099Y139550D01*
X275099Y147300D01*
X275098Y147308D01*
X275099Y147317D01*
X275078Y147405D01*
X275060Y147495D01*
X275055Y147502D01*
X275053Y147510D01*
X274999Y147583D01*
X274947Y147659D01*
X274940Y147663D01*
X274935Y147670D01*
X274857Y147717D01*
X274780Y147766D01*
X274771Y147767D01*
X274764Y147772D01*
X274600Y147799D01*
X273600Y147799D01*
X273592Y147798D01*
X273583Y147799D01*
X273495Y147778D01*
X273405Y147760D01*
X273398Y147755D01*
X273390Y147753D01*
X273317Y147699D01*
X273241Y147647D01*
X273237Y147640D01*
X273230Y147635D01*
X273183Y147557D01*
X273134Y147480D01*
X273133Y147471D01*
X273128Y147464D01*
X273101Y147300D01*
X273101Y139550D01*
X273102Y139542D01*
X273101Y139533D01*
X273122Y139445D01*
X273140Y139355D01*
X273145Y139348D01*
X273147Y139340D01*
X273201Y139267D01*
X273253Y139191D01*
X273260Y139187D01*
X273265Y139180D01*
X273343Y139133D01*
X273420Y139084D01*
X273429Y139083D01*
X273436Y139078D01*
X273600Y139051D01*
X274600Y139051D01*
X274608Y139052D01*
G37*
G36*
X290608Y139052D02*
X290608Y139052D01*
X290617Y139051D01*
X290705Y139072D01*
X290795Y139090D01*
X290802Y139095D01*
X290810Y139097D01*
X290883Y139151D01*
X290959Y139203D01*
X290963Y139210D01*
X290970Y139215D01*
X291017Y139293D01*
X291066Y139370D01*
X291067Y139379D01*
X291072Y139386D01*
X291099Y139550D01*
X291099Y147300D01*
X291098Y147308D01*
X291099Y147317D01*
X291078Y147405D01*
X291060Y147495D01*
X291055Y147502D01*
X291053Y147510D01*
X290999Y147583D01*
X290947Y147659D01*
X290940Y147663D01*
X290935Y147670D01*
X290857Y147717D01*
X290780Y147766D01*
X290771Y147767D01*
X290764Y147772D01*
X290600Y147799D01*
X289600Y147799D01*
X289592Y147798D01*
X289583Y147799D01*
X289495Y147778D01*
X289405Y147760D01*
X289398Y147755D01*
X289390Y147753D01*
X289317Y147699D01*
X289241Y147647D01*
X289237Y147640D01*
X289230Y147635D01*
X289183Y147557D01*
X289134Y147480D01*
X289133Y147471D01*
X289128Y147464D01*
X289101Y147300D01*
X289101Y139550D01*
X289102Y139542D01*
X289101Y139533D01*
X289122Y139445D01*
X289140Y139355D01*
X289145Y139348D01*
X289147Y139340D01*
X289201Y139267D01*
X289253Y139191D01*
X289260Y139187D01*
X289265Y139180D01*
X289343Y139133D01*
X289420Y139084D01*
X289429Y139083D01*
X289436Y139078D01*
X289600Y139051D01*
X290600Y139051D01*
X290608Y139052D01*
G37*
G36*
X266608Y139052D02*
X266608Y139052D01*
X266617Y139051D01*
X266705Y139072D01*
X266795Y139090D01*
X266802Y139095D01*
X266810Y139097D01*
X266883Y139151D01*
X266959Y139203D01*
X266963Y139210D01*
X266970Y139215D01*
X267017Y139293D01*
X267066Y139370D01*
X267067Y139379D01*
X267072Y139386D01*
X267099Y139550D01*
X267099Y147300D01*
X267098Y147308D01*
X267099Y147317D01*
X267078Y147405D01*
X267060Y147495D01*
X267055Y147502D01*
X267053Y147510D01*
X266999Y147583D01*
X266947Y147659D01*
X266940Y147663D01*
X266935Y147670D01*
X266857Y147717D01*
X266780Y147766D01*
X266771Y147767D01*
X266764Y147772D01*
X266600Y147799D01*
X265600Y147799D01*
X265592Y147798D01*
X265583Y147799D01*
X265495Y147778D01*
X265405Y147760D01*
X265398Y147755D01*
X265390Y147753D01*
X265317Y147699D01*
X265241Y147647D01*
X265237Y147640D01*
X265230Y147635D01*
X265183Y147557D01*
X265134Y147480D01*
X265133Y147471D01*
X265128Y147464D01*
X265101Y147300D01*
X265101Y139550D01*
X265102Y139542D01*
X265101Y139533D01*
X265122Y139445D01*
X265140Y139355D01*
X265145Y139348D01*
X265147Y139340D01*
X265201Y139267D01*
X265253Y139191D01*
X265260Y139187D01*
X265265Y139180D01*
X265343Y139133D01*
X265420Y139084D01*
X265429Y139083D01*
X265436Y139078D01*
X265600Y139051D01*
X266600Y139051D01*
X266608Y139052D01*
G37*
G36*
X298608Y139052D02*
X298608Y139052D01*
X298617Y139051D01*
X298705Y139072D01*
X298795Y139090D01*
X298802Y139095D01*
X298810Y139097D01*
X298883Y139151D01*
X298959Y139203D01*
X298963Y139210D01*
X298970Y139215D01*
X299017Y139293D01*
X299066Y139370D01*
X299067Y139379D01*
X299072Y139386D01*
X299099Y139550D01*
X299099Y147300D01*
X299098Y147308D01*
X299099Y147317D01*
X299078Y147405D01*
X299060Y147495D01*
X299055Y147502D01*
X299053Y147510D01*
X298999Y147583D01*
X298947Y147659D01*
X298940Y147663D01*
X298935Y147670D01*
X298857Y147717D01*
X298780Y147766D01*
X298771Y147767D01*
X298764Y147772D01*
X298600Y147799D01*
X297600Y147799D01*
X297592Y147798D01*
X297583Y147799D01*
X297495Y147778D01*
X297405Y147760D01*
X297398Y147755D01*
X297390Y147753D01*
X297317Y147699D01*
X297241Y147647D01*
X297237Y147640D01*
X297230Y147635D01*
X297183Y147557D01*
X297134Y147480D01*
X297133Y147471D01*
X297128Y147464D01*
X297101Y147300D01*
X297101Y139550D01*
X297102Y139542D01*
X297101Y139533D01*
X297122Y139445D01*
X297140Y139355D01*
X297145Y139348D01*
X297147Y139340D01*
X297201Y139267D01*
X297253Y139191D01*
X297260Y139187D01*
X297265Y139180D01*
X297343Y139133D01*
X297420Y139084D01*
X297429Y139083D01*
X297436Y139078D01*
X297600Y139051D01*
X298600Y139051D01*
X298608Y139052D01*
G37*
D10*
X502500Y45000D03*
X95000Y267500D03*
D11*
X277738Y163438D02*
X306462Y163438D01*
X277738Y163438D02*
X277738Y192162D01*
X306462Y192162D01*
X306462Y163438D01*
X306462Y167515D02*
X277738Y167515D01*
X277738Y171592D02*
X306462Y171592D01*
X306462Y175669D02*
X277738Y175669D01*
X277738Y179746D02*
X306462Y179746D01*
X306462Y183823D02*
X277738Y183823D01*
X277738Y187900D02*
X306462Y187900D01*
X306462Y191977D02*
X277738Y191977D01*
D12*
X304800Y242650D03*
X304800Y252650D03*
X281940Y242650D03*
X281940Y252650D03*
X306070Y114982D03*
X306070Y104982D03*
X316230Y242650D03*
X316230Y252650D03*
X293370Y242650D03*
X293370Y252650D03*
D13*
X228520Y204470D03*
X218520Y204470D03*
X228520Y167640D03*
X218520Y167640D03*
D12*
X293370Y114982D03*
X293370Y104982D03*
D13*
X353648Y167640D03*
X363648Y167640D03*
X353648Y203200D03*
X363648Y203200D03*
X353648Y228600D03*
X363648Y228600D03*
X353648Y215900D03*
X363648Y215900D03*
X417750Y220980D03*
X407750Y220980D03*
D14*
X63500Y38100D03*
D15*
X38100Y38100D03*
X63500Y63500D03*
X38100Y63500D03*
X63500Y88900D03*
X38100Y88900D03*
X63500Y114300D03*
X38100Y114300D03*
X63500Y139700D03*
X38100Y139700D03*
X63500Y165100D03*
X38100Y165100D03*
X63500Y190500D03*
X38100Y190500D03*
X63500Y215900D03*
X38100Y215900D03*
D16*
X196850Y274760D03*
X184150Y274760D03*
X171450Y274760D03*
X158750Y274760D03*
X158750Y202760D03*
X171450Y202760D03*
X184150Y202760D03*
X196850Y202760D03*
D13*
X122000Y234950D03*
X132000Y234950D03*
X132000Y222250D03*
X122000Y222250D03*
D17*
X454440Y62294D03*
X454440Y17294D03*
X363440Y17294D03*
X363440Y62294D03*
D13*
X132000Y209550D03*
X122000Y209550D03*
X132000Y196850D03*
X122000Y196850D03*
D18*
X563580Y35220D03*
X570080Y25220D03*
X576580Y35220D03*
X583080Y25220D03*
X589580Y35220D03*
D19*
X540830Y36320D03*
X612330Y36320D03*
D20*
X207500Y27940D03*
X182500Y27940D03*
X157500Y27940D03*
D21*
X540512Y124714D03*
X540512Y101600D03*
X540512Y78486D03*
D22*
X602490Y101600D03*
D13*
X500300Y78740D03*
X490300Y78740D03*
X500300Y101600D03*
X490300Y101600D03*
D23*
X509896Y123190D03*
X492896Y123190D03*
D24*
X198120Y112500D03*
X198120Y95500D03*
D25*
X245000Y100950D03*
X263000Y100950D03*
X263000Y114950D03*
X245000Y114950D03*
D12*
X327660Y242650D03*
X327660Y252650D03*
X214630Y112950D03*
X214630Y102950D03*
D26*
X275370Y25669D03*
X275370Y11669D03*
X311370Y11669D03*
X311370Y25669D03*
D27*
X293370Y27669D03*
X293370Y9669D03*
D28*
X127508Y107887D03*
X164592Y107887D03*
X164592Y171514D03*
X127508Y171514D03*
D29*
X101600Y88900D03*
X101600Y63500D03*
X101600Y38100D03*
D30*
X83480Y304800D03*
X104480Y304800D03*
X18710Y304800D03*
X39710Y304800D03*
D31*
X560820Y182500D03*
X560820Y262500D03*
D32*
X556820Y154500D03*
X556820Y309500D03*
D33*
X463820Y154500D03*
D34*
X461320Y300500D03*
D35*
X450820Y166500D03*
X450820Y177500D03*
X450820Y188500D03*
X450820Y199500D03*
X450820Y210500D03*
X450820Y221500D03*
X450820Y232500D03*
X450820Y243500D03*
X450820Y254500D03*
M02*
