G04 EAGLE Gerber RS-274X export*
G75*
%MOMM*%
%FSLAX34Y34*%
%LPD*%
%INSolderpaste Top*%
%IPPOS*%
%AMOC8*
5,1,8,0,0,1.08239X$1,22.5*%
G01*
%ADD10C,0.100000*%
%ADD11R,0.700000X0.600000*%
%ADD12R,0.600000X0.700000*%
%ADD13R,0.650000X1.650000*%
%ADD14R,2.100000X1.400000*%
%ADD15R,2.235200X1.219200*%
%ADD16R,2.200000X3.600000*%
%ADD17R,1.100000X1.000000*%
%ADD18R,1.000000X1.100000*%
%ADD19R,1.100000X0.900000*%
%ADD20R,1.400000X0.950000*%
%ADD21R,0.700000X1.200000*%
%ADD22R,1.100000X1.200000*%
%ADD23R,2.200000X1.200000*%
%ADD24R,1.800000X1.200000*%
%ADD25R,1.500000X1.600000*%
%ADD26R,1.600000X0.700000*%

G36*
X289874Y179537D02*
X289874Y179537D01*
X289882Y179536D01*
X289970Y179557D01*
X290060Y179575D01*
X290067Y179580D01*
X290075Y179582D01*
X290149Y179636D01*
X290224Y179688D01*
X290229Y179695D01*
X290235Y179700D01*
X290282Y179778D01*
X290331Y179855D01*
X290333Y179863D01*
X290337Y179871D01*
X290365Y180035D01*
X290365Y189597D01*
X290363Y189605D01*
X290364Y189614D01*
X290343Y189702D01*
X290325Y189792D01*
X290320Y189799D01*
X290318Y189807D01*
X290264Y189880D01*
X290212Y189956D01*
X290205Y189961D01*
X290200Y189967D01*
X290122Y190014D01*
X290045Y190063D01*
X290037Y190064D01*
X290029Y190069D01*
X289865Y190096D01*
X280303Y190096D01*
X280295Y190095D01*
X280286Y190096D01*
X280198Y190075D01*
X280108Y190057D01*
X280101Y190052D01*
X280093Y190050D01*
X280020Y189996D01*
X279944Y189944D01*
X279939Y189937D01*
X279933Y189932D01*
X279886Y189854D01*
X279837Y189777D01*
X279836Y189768D01*
X279831Y189761D01*
X279804Y189597D01*
X279804Y180035D01*
X279805Y180026D01*
X279804Y180018D01*
X279825Y179930D01*
X279843Y179840D01*
X279848Y179833D01*
X279850Y179825D01*
X279904Y179751D01*
X279956Y179676D01*
X279963Y179671D01*
X279968Y179665D01*
X280046Y179618D01*
X280123Y179569D01*
X280132Y179567D01*
X280139Y179563D01*
X280303Y179535D01*
X289865Y179535D01*
X289874Y179537D01*
G37*
G36*
X303905Y179537D02*
X303905Y179537D01*
X303914Y179536D01*
X304002Y179557D01*
X304092Y179575D01*
X304099Y179580D01*
X304107Y179582D01*
X304180Y179636D01*
X304256Y179688D01*
X304261Y179695D01*
X304267Y179700D01*
X304314Y179778D01*
X304363Y179855D01*
X304364Y179863D01*
X304369Y179871D01*
X304396Y180035D01*
X304396Y189597D01*
X304395Y189605D01*
X304396Y189614D01*
X304375Y189702D01*
X304357Y189792D01*
X304352Y189799D01*
X304350Y189807D01*
X304296Y189880D01*
X304244Y189956D01*
X304237Y189961D01*
X304232Y189967D01*
X304154Y190014D01*
X304077Y190063D01*
X304068Y190064D01*
X304061Y190069D01*
X303897Y190096D01*
X294335Y190096D01*
X294326Y190095D01*
X294318Y190096D01*
X294230Y190075D01*
X294140Y190057D01*
X294133Y190052D01*
X294125Y190050D01*
X294051Y189996D01*
X293976Y189944D01*
X293971Y189937D01*
X293965Y189932D01*
X293918Y189854D01*
X293869Y189777D01*
X293867Y189768D01*
X293863Y189761D01*
X293835Y189597D01*
X293835Y180035D01*
X293837Y180026D01*
X293836Y180018D01*
X293857Y179930D01*
X293875Y179840D01*
X293880Y179833D01*
X293882Y179825D01*
X293936Y179751D01*
X293988Y179676D01*
X293995Y179671D01*
X294000Y179665D01*
X294078Y179618D01*
X294155Y179569D01*
X294163Y179567D01*
X294171Y179563D01*
X294335Y179535D01*
X303897Y179535D01*
X303905Y179537D01*
G37*
G36*
X303905Y165505D02*
X303905Y165505D01*
X303914Y165504D01*
X304002Y165525D01*
X304092Y165543D01*
X304099Y165548D01*
X304107Y165550D01*
X304180Y165604D01*
X304256Y165656D01*
X304261Y165663D01*
X304267Y165668D01*
X304314Y165746D01*
X304363Y165823D01*
X304364Y165832D01*
X304369Y165839D01*
X304396Y166003D01*
X304396Y175565D01*
X304395Y175574D01*
X304396Y175582D01*
X304375Y175670D01*
X304357Y175760D01*
X304352Y175767D01*
X304350Y175775D01*
X304296Y175849D01*
X304244Y175924D01*
X304237Y175929D01*
X304232Y175935D01*
X304154Y175982D01*
X304077Y176031D01*
X304068Y176033D01*
X304061Y176037D01*
X303897Y176065D01*
X294335Y176065D01*
X294326Y176063D01*
X294318Y176064D01*
X294230Y176043D01*
X294140Y176025D01*
X294133Y176020D01*
X294125Y176018D01*
X294051Y175964D01*
X293976Y175912D01*
X293971Y175905D01*
X293965Y175900D01*
X293918Y175822D01*
X293869Y175745D01*
X293867Y175737D01*
X293863Y175729D01*
X293835Y175565D01*
X293835Y166003D01*
X293837Y165995D01*
X293836Y165986D01*
X293857Y165898D01*
X293875Y165808D01*
X293880Y165801D01*
X293882Y165793D01*
X293936Y165720D01*
X293988Y165644D01*
X293995Y165639D01*
X294000Y165633D01*
X294078Y165586D01*
X294155Y165537D01*
X294163Y165536D01*
X294171Y165531D01*
X294335Y165504D01*
X303897Y165504D01*
X303905Y165505D01*
G37*
G36*
X289874Y165505D02*
X289874Y165505D01*
X289882Y165504D01*
X289970Y165525D01*
X290060Y165543D01*
X290067Y165548D01*
X290075Y165550D01*
X290149Y165604D01*
X290224Y165656D01*
X290229Y165663D01*
X290235Y165668D01*
X290282Y165746D01*
X290331Y165823D01*
X290333Y165832D01*
X290337Y165839D01*
X290365Y166003D01*
X290365Y175565D01*
X290363Y175574D01*
X290364Y175582D01*
X290343Y175670D01*
X290325Y175760D01*
X290320Y175767D01*
X290318Y175775D01*
X290264Y175849D01*
X290212Y175924D01*
X290205Y175929D01*
X290200Y175935D01*
X290122Y175982D01*
X290045Y176031D01*
X290037Y176033D01*
X290029Y176037D01*
X289865Y176065D01*
X280303Y176065D01*
X280295Y176063D01*
X280286Y176064D01*
X280198Y176043D01*
X280108Y176025D01*
X280101Y176020D01*
X280093Y176018D01*
X280020Y175964D01*
X279944Y175912D01*
X279939Y175905D01*
X279933Y175900D01*
X279886Y175822D01*
X279837Y175745D01*
X279836Y175737D01*
X279831Y175729D01*
X279804Y175565D01*
X279804Y166003D01*
X279805Y165995D01*
X279804Y165986D01*
X279825Y165898D01*
X279843Y165808D01*
X279848Y165801D01*
X279850Y165793D01*
X279904Y165720D01*
X279956Y165644D01*
X279963Y165639D01*
X279968Y165633D01*
X280046Y165586D01*
X280123Y165537D01*
X280132Y165536D01*
X280139Y165531D01*
X280303Y165504D01*
X289865Y165504D01*
X289874Y165505D01*
G37*
D10*
X261600Y203300D02*
X253850Y203300D01*
X253850Y204300D01*
X261600Y204300D01*
X261600Y203300D01*
X261600Y204250D02*
X253850Y204250D01*
X253850Y199300D02*
X261600Y199300D01*
X253850Y199300D02*
X253850Y200300D01*
X261600Y200300D01*
X261600Y199300D01*
X261600Y200250D02*
X253850Y200250D01*
X253850Y195300D02*
X261600Y195300D01*
X253850Y195300D02*
X253850Y196300D01*
X261600Y196300D01*
X261600Y195300D01*
X261600Y196250D02*
X253850Y196250D01*
X253850Y191300D02*
X261600Y191300D01*
X253850Y191300D02*
X253850Y192300D01*
X261600Y192300D01*
X261600Y191300D01*
X261600Y192250D02*
X253850Y192250D01*
X253850Y187300D02*
X261600Y187300D01*
X253850Y187300D02*
X253850Y188300D01*
X261600Y188300D01*
X261600Y187300D01*
X261600Y188250D02*
X253850Y188250D01*
X253850Y183300D02*
X261600Y183300D01*
X253850Y183300D02*
X253850Y184300D01*
X261600Y184300D01*
X261600Y183300D01*
X261600Y184250D02*
X253850Y184250D01*
X253850Y179300D02*
X261600Y179300D01*
X253850Y179300D02*
X253850Y180300D01*
X261600Y180300D01*
X261600Y179300D01*
X261600Y180250D02*
X253850Y180250D01*
X253850Y175300D02*
X261600Y175300D01*
X253850Y175300D02*
X253850Y176300D01*
X261600Y176300D01*
X261600Y175300D01*
X261600Y176250D02*
X253850Y176250D01*
X253850Y171300D02*
X261600Y171300D01*
X253850Y171300D02*
X253850Y172300D01*
X261600Y172300D01*
X261600Y171300D01*
X261600Y172250D02*
X253850Y172250D01*
X253850Y167300D02*
X261600Y167300D01*
X253850Y167300D02*
X253850Y168300D01*
X261600Y168300D01*
X261600Y167300D01*
X261600Y168250D02*
X253850Y168250D01*
X253850Y163300D02*
X261600Y163300D01*
X253850Y163300D02*
X253850Y164300D01*
X261600Y164300D01*
X261600Y163300D01*
X261600Y164250D02*
X253850Y164250D01*
X253850Y159300D02*
X261600Y159300D01*
X253850Y159300D02*
X253850Y160300D01*
X261600Y160300D01*
X261600Y159300D01*
X261600Y160250D02*
X253850Y160250D01*
X253850Y155300D02*
X261600Y155300D01*
X253850Y155300D02*
X253850Y156300D01*
X261600Y156300D01*
X261600Y155300D01*
X261600Y156250D02*
X253850Y156250D01*
X253850Y151300D02*
X261600Y151300D01*
X253850Y151300D02*
X253850Y152300D01*
X261600Y152300D01*
X261600Y151300D01*
X261600Y152250D02*
X253850Y152250D01*
X266600Y147300D02*
X266600Y139550D01*
X265600Y139550D01*
X265600Y147300D01*
X266600Y147300D01*
X266600Y140500D02*
X265600Y140500D01*
X265600Y141450D02*
X266600Y141450D01*
X266600Y142400D02*
X265600Y142400D01*
X265600Y143350D02*
X266600Y143350D01*
X266600Y144300D02*
X265600Y144300D01*
X265600Y145250D02*
X266600Y145250D01*
X266600Y146200D02*
X265600Y146200D01*
X265600Y147150D02*
X266600Y147150D01*
X270600Y147300D02*
X270600Y139550D01*
X269600Y139550D01*
X269600Y147300D01*
X270600Y147300D01*
X270600Y140500D02*
X269600Y140500D01*
X269600Y141450D02*
X270600Y141450D01*
X270600Y142400D02*
X269600Y142400D01*
X269600Y143350D02*
X270600Y143350D01*
X270600Y144300D02*
X269600Y144300D01*
X269600Y145250D02*
X270600Y145250D01*
X270600Y146200D02*
X269600Y146200D01*
X269600Y147150D02*
X270600Y147150D01*
X274600Y147300D02*
X274600Y139550D01*
X273600Y139550D01*
X273600Y147300D01*
X274600Y147300D01*
X274600Y140500D02*
X273600Y140500D01*
X273600Y141450D02*
X274600Y141450D01*
X274600Y142400D02*
X273600Y142400D01*
X273600Y143350D02*
X274600Y143350D01*
X274600Y144300D02*
X273600Y144300D01*
X273600Y145250D02*
X274600Y145250D01*
X274600Y146200D02*
X273600Y146200D01*
X273600Y147150D02*
X274600Y147150D01*
X278600Y147300D02*
X278600Y139550D01*
X277600Y139550D01*
X277600Y147300D01*
X278600Y147300D01*
X278600Y140500D02*
X277600Y140500D01*
X277600Y141450D02*
X278600Y141450D01*
X278600Y142400D02*
X277600Y142400D01*
X277600Y143350D02*
X278600Y143350D01*
X278600Y144300D02*
X277600Y144300D01*
X277600Y145250D02*
X278600Y145250D01*
X278600Y146200D02*
X277600Y146200D01*
X277600Y147150D02*
X278600Y147150D01*
X282600Y147300D02*
X282600Y139550D01*
X281600Y139550D01*
X281600Y147300D01*
X282600Y147300D01*
X282600Y140500D02*
X281600Y140500D01*
X281600Y141450D02*
X282600Y141450D01*
X282600Y142400D02*
X281600Y142400D01*
X281600Y143350D02*
X282600Y143350D01*
X282600Y144300D02*
X281600Y144300D01*
X281600Y145250D02*
X282600Y145250D01*
X282600Y146200D02*
X281600Y146200D01*
X281600Y147150D02*
X282600Y147150D01*
X286600Y147300D02*
X286600Y139550D01*
X285600Y139550D01*
X285600Y147300D01*
X286600Y147300D01*
X286600Y140500D02*
X285600Y140500D01*
X285600Y141450D02*
X286600Y141450D01*
X286600Y142400D02*
X285600Y142400D01*
X285600Y143350D02*
X286600Y143350D01*
X286600Y144300D02*
X285600Y144300D01*
X285600Y145250D02*
X286600Y145250D01*
X286600Y146200D02*
X285600Y146200D01*
X285600Y147150D02*
X286600Y147150D01*
X290600Y147300D02*
X290600Y139550D01*
X289600Y139550D01*
X289600Y147300D01*
X290600Y147300D01*
X290600Y140500D02*
X289600Y140500D01*
X289600Y141450D02*
X290600Y141450D01*
X290600Y142400D02*
X289600Y142400D01*
X289600Y143350D02*
X290600Y143350D01*
X290600Y144300D02*
X289600Y144300D01*
X289600Y145250D02*
X290600Y145250D01*
X290600Y146200D02*
X289600Y146200D01*
X289600Y147150D02*
X290600Y147150D01*
X294600Y147300D02*
X294600Y139550D01*
X293600Y139550D01*
X293600Y147300D01*
X294600Y147300D01*
X294600Y140500D02*
X293600Y140500D01*
X293600Y141450D02*
X294600Y141450D01*
X294600Y142400D02*
X293600Y142400D01*
X293600Y143350D02*
X294600Y143350D01*
X294600Y144300D02*
X293600Y144300D01*
X293600Y145250D02*
X294600Y145250D01*
X294600Y146200D02*
X293600Y146200D01*
X293600Y147150D02*
X294600Y147150D01*
X298600Y147300D02*
X298600Y139550D01*
X297600Y139550D01*
X297600Y147300D01*
X298600Y147300D01*
X298600Y140500D02*
X297600Y140500D01*
X297600Y141450D02*
X298600Y141450D01*
X298600Y142400D02*
X297600Y142400D01*
X297600Y143350D02*
X298600Y143350D01*
X298600Y144300D02*
X297600Y144300D01*
X297600Y145250D02*
X298600Y145250D01*
X298600Y146200D02*
X297600Y146200D01*
X297600Y147150D02*
X298600Y147150D01*
X302600Y147300D02*
X302600Y139550D01*
X301600Y139550D01*
X301600Y147300D01*
X302600Y147300D01*
X302600Y140500D02*
X301600Y140500D01*
X301600Y141450D02*
X302600Y141450D01*
X302600Y142400D02*
X301600Y142400D01*
X301600Y143350D02*
X302600Y143350D01*
X302600Y144300D02*
X301600Y144300D01*
X301600Y145250D02*
X302600Y145250D01*
X302600Y146200D02*
X301600Y146200D01*
X301600Y147150D02*
X302600Y147150D01*
X306600Y147300D02*
X306600Y139550D01*
X305600Y139550D01*
X305600Y147300D01*
X306600Y147300D01*
X306600Y140500D02*
X305600Y140500D01*
X305600Y141450D02*
X306600Y141450D01*
X306600Y142400D02*
X305600Y142400D01*
X305600Y143350D02*
X306600Y143350D01*
X306600Y144300D02*
X305600Y144300D01*
X305600Y145250D02*
X306600Y145250D01*
X306600Y146200D02*
X305600Y146200D01*
X305600Y147150D02*
X306600Y147150D01*
X310600Y147300D02*
X310600Y139550D01*
X309600Y139550D01*
X309600Y147300D01*
X310600Y147300D01*
X310600Y140500D02*
X309600Y140500D01*
X309600Y141450D02*
X310600Y141450D01*
X310600Y142400D02*
X309600Y142400D01*
X309600Y143350D02*
X310600Y143350D01*
X310600Y144300D02*
X309600Y144300D01*
X309600Y145250D02*
X310600Y145250D01*
X310600Y146200D02*
X309600Y146200D01*
X309600Y147150D02*
X310600Y147150D01*
X314600Y147300D02*
X314600Y139550D01*
X313600Y139550D01*
X313600Y147300D01*
X314600Y147300D01*
X314600Y140500D02*
X313600Y140500D01*
X313600Y141450D02*
X314600Y141450D01*
X314600Y142400D02*
X313600Y142400D01*
X313600Y143350D02*
X314600Y143350D01*
X314600Y144300D02*
X313600Y144300D01*
X313600Y145250D02*
X314600Y145250D01*
X314600Y146200D02*
X313600Y146200D01*
X313600Y147150D02*
X314600Y147150D01*
X318600Y147300D02*
X318600Y139550D01*
X317600Y139550D01*
X317600Y147300D01*
X318600Y147300D01*
X318600Y140500D02*
X317600Y140500D01*
X317600Y141450D02*
X318600Y141450D01*
X318600Y142400D02*
X317600Y142400D01*
X317600Y143350D02*
X318600Y143350D01*
X318600Y144300D02*
X317600Y144300D01*
X317600Y145250D02*
X318600Y145250D01*
X318600Y146200D02*
X317600Y146200D01*
X317600Y147150D02*
X318600Y147150D01*
X322600Y152300D02*
X330350Y152300D01*
X330350Y151300D01*
X322600Y151300D01*
X322600Y152300D01*
X322600Y152250D02*
X330350Y152250D01*
X330350Y156300D02*
X322600Y156300D01*
X330350Y156300D02*
X330350Y155300D01*
X322600Y155300D01*
X322600Y156300D01*
X322600Y156250D02*
X330350Y156250D01*
X330350Y160300D02*
X322600Y160300D01*
X330350Y160300D02*
X330350Y159300D01*
X322600Y159300D01*
X322600Y160300D01*
X322600Y160250D02*
X330350Y160250D01*
X330350Y164300D02*
X322600Y164300D01*
X330350Y164300D02*
X330350Y163300D01*
X322600Y163300D01*
X322600Y164300D01*
X322600Y164250D02*
X330350Y164250D01*
X330350Y168300D02*
X322600Y168300D01*
X330350Y168300D02*
X330350Y167300D01*
X322600Y167300D01*
X322600Y168300D01*
X322600Y168250D02*
X330350Y168250D01*
X330350Y172300D02*
X322600Y172300D01*
X330350Y172300D02*
X330350Y171300D01*
X322600Y171300D01*
X322600Y172300D01*
X322600Y172250D02*
X330350Y172250D01*
X330350Y176300D02*
X322600Y176300D01*
X330350Y176300D02*
X330350Y175300D01*
X322600Y175300D01*
X322600Y176300D01*
X322600Y176250D02*
X330350Y176250D01*
X330350Y180300D02*
X322600Y180300D01*
X330350Y180300D02*
X330350Y179300D01*
X322600Y179300D01*
X322600Y180300D01*
X322600Y180250D02*
X330350Y180250D01*
X330350Y184300D02*
X322600Y184300D01*
X330350Y184300D02*
X330350Y183300D01*
X322600Y183300D01*
X322600Y184300D01*
X322600Y184250D02*
X330350Y184250D01*
X330350Y188300D02*
X322600Y188300D01*
X330350Y188300D02*
X330350Y187300D01*
X322600Y187300D01*
X322600Y188300D01*
X322600Y188250D02*
X330350Y188250D01*
X330350Y192300D02*
X322600Y192300D01*
X330350Y192300D02*
X330350Y191300D01*
X322600Y191300D01*
X322600Y192300D01*
X322600Y192250D02*
X330350Y192250D01*
X330350Y196300D02*
X322600Y196300D01*
X330350Y196300D02*
X330350Y195300D01*
X322600Y195300D01*
X322600Y196300D01*
X322600Y196250D02*
X330350Y196250D01*
X330350Y200300D02*
X322600Y200300D01*
X330350Y200300D02*
X330350Y199300D01*
X322600Y199300D01*
X322600Y200300D01*
X322600Y200250D02*
X330350Y200250D01*
X330350Y204300D02*
X322600Y204300D01*
X330350Y204300D02*
X330350Y203300D01*
X322600Y203300D01*
X322600Y204300D01*
X322600Y204250D02*
X330350Y204250D01*
X317600Y208300D02*
X317600Y216050D01*
X318600Y216050D01*
X318600Y208300D01*
X317600Y208300D01*
X317600Y209250D02*
X318600Y209250D01*
X318600Y210200D02*
X317600Y210200D01*
X317600Y211150D02*
X318600Y211150D01*
X318600Y212100D02*
X317600Y212100D01*
X317600Y213050D02*
X318600Y213050D01*
X318600Y214000D02*
X317600Y214000D01*
X317600Y214950D02*
X318600Y214950D01*
X318600Y215900D02*
X317600Y215900D01*
X313600Y216050D02*
X313600Y208300D01*
X313600Y216050D02*
X314600Y216050D01*
X314600Y208300D01*
X313600Y208300D01*
X313600Y209250D02*
X314600Y209250D01*
X314600Y210200D02*
X313600Y210200D01*
X313600Y211150D02*
X314600Y211150D01*
X314600Y212100D02*
X313600Y212100D01*
X313600Y213050D02*
X314600Y213050D01*
X314600Y214000D02*
X313600Y214000D01*
X313600Y214950D02*
X314600Y214950D01*
X314600Y215900D02*
X313600Y215900D01*
X309600Y216050D02*
X309600Y208300D01*
X309600Y216050D02*
X310600Y216050D01*
X310600Y208300D01*
X309600Y208300D01*
X309600Y209250D02*
X310600Y209250D01*
X310600Y210200D02*
X309600Y210200D01*
X309600Y211150D02*
X310600Y211150D01*
X310600Y212100D02*
X309600Y212100D01*
X309600Y213050D02*
X310600Y213050D01*
X310600Y214000D02*
X309600Y214000D01*
X309600Y214950D02*
X310600Y214950D01*
X310600Y215900D02*
X309600Y215900D01*
X305600Y216050D02*
X305600Y208300D01*
X305600Y216050D02*
X306600Y216050D01*
X306600Y208300D01*
X305600Y208300D01*
X305600Y209250D02*
X306600Y209250D01*
X306600Y210200D02*
X305600Y210200D01*
X305600Y211150D02*
X306600Y211150D01*
X306600Y212100D02*
X305600Y212100D01*
X305600Y213050D02*
X306600Y213050D01*
X306600Y214000D02*
X305600Y214000D01*
X305600Y214950D02*
X306600Y214950D01*
X306600Y215900D02*
X305600Y215900D01*
X301600Y216050D02*
X301600Y208300D01*
X301600Y216050D02*
X302600Y216050D01*
X302600Y208300D01*
X301600Y208300D01*
X301600Y209250D02*
X302600Y209250D01*
X302600Y210200D02*
X301600Y210200D01*
X301600Y211150D02*
X302600Y211150D01*
X302600Y212100D02*
X301600Y212100D01*
X301600Y213050D02*
X302600Y213050D01*
X302600Y214000D02*
X301600Y214000D01*
X301600Y214950D02*
X302600Y214950D01*
X302600Y215900D02*
X301600Y215900D01*
X297600Y216050D02*
X297600Y208300D01*
X297600Y216050D02*
X298600Y216050D01*
X298600Y208300D01*
X297600Y208300D01*
X297600Y209250D02*
X298600Y209250D01*
X298600Y210200D02*
X297600Y210200D01*
X297600Y211150D02*
X298600Y211150D01*
X298600Y212100D02*
X297600Y212100D01*
X297600Y213050D02*
X298600Y213050D01*
X298600Y214000D02*
X297600Y214000D01*
X297600Y214950D02*
X298600Y214950D01*
X298600Y215900D02*
X297600Y215900D01*
X293600Y216050D02*
X293600Y208300D01*
X293600Y216050D02*
X294600Y216050D01*
X294600Y208300D01*
X293600Y208300D01*
X293600Y209250D02*
X294600Y209250D01*
X294600Y210200D02*
X293600Y210200D01*
X293600Y211150D02*
X294600Y211150D01*
X294600Y212100D02*
X293600Y212100D01*
X293600Y213050D02*
X294600Y213050D01*
X294600Y214000D02*
X293600Y214000D01*
X293600Y214950D02*
X294600Y214950D01*
X294600Y215900D02*
X293600Y215900D01*
X289600Y216050D02*
X289600Y208300D01*
X289600Y216050D02*
X290600Y216050D01*
X290600Y208300D01*
X289600Y208300D01*
X289600Y209250D02*
X290600Y209250D01*
X290600Y210200D02*
X289600Y210200D01*
X289600Y211150D02*
X290600Y211150D01*
X290600Y212100D02*
X289600Y212100D01*
X289600Y213050D02*
X290600Y213050D01*
X290600Y214000D02*
X289600Y214000D01*
X289600Y214950D02*
X290600Y214950D01*
X290600Y215900D02*
X289600Y215900D01*
X285600Y216050D02*
X285600Y208300D01*
X285600Y216050D02*
X286600Y216050D01*
X286600Y208300D01*
X285600Y208300D01*
X285600Y209250D02*
X286600Y209250D01*
X286600Y210200D02*
X285600Y210200D01*
X285600Y211150D02*
X286600Y211150D01*
X286600Y212100D02*
X285600Y212100D01*
X285600Y213050D02*
X286600Y213050D01*
X286600Y214000D02*
X285600Y214000D01*
X285600Y214950D02*
X286600Y214950D01*
X286600Y215900D02*
X285600Y215900D01*
X281600Y216050D02*
X281600Y208300D01*
X281600Y216050D02*
X282600Y216050D01*
X282600Y208300D01*
X281600Y208300D01*
X281600Y209250D02*
X282600Y209250D01*
X282600Y210200D02*
X281600Y210200D01*
X281600Y211150D02*
X282600Y211150D01*
X282600Y212100D02*
X281600Y212100D01*
X281600Y213050D02*
X282600Y213050D01*
X282600Y214000D02*
X281600Y214000D01*
X281600Y214950D02*
X282600Y214950D01*
X282600Y215900D02*
X281600Y215900D01*
X277600Y216050D02*
X277600Y208300D01*
X277600Y216050D02*
X278600Y216050D01*
X278600Y208300D01*
X277600Y208300D01*
X277600Y209250D02*
X278600Y209250D01*
X278600Y210200D02*
X277600Y210200D01*
X277600Y211150D02*
X278600Y211150D01*
X278600Y212100D02*
X277600Y212100D01*
X277600Y213050D02*
X278600Y213050D01*
X278600Y214000D02*
X277600Y214000D01*
X277600Y214950D02*
X278600Y214950D01*
X278600Y215900D02*
X277600Y215900D01*
X273600Y216050D02*
X273600Y208300D01*
X273600Y216050D02*
X274600Y216050D01*
X274600Y208300D01*
X273600Y208300D01*
X273600Y209250D02*
X274600Y209250D01*
X274600Y210200D02*
X273600Y210200D01*
X273600Y211150D02*
X274600Y211150D01*
X274600Y212100D02*
X273600Y212100D01*
X273600Y213050D02*
X274600Y213050D01*
X274600Y214000D02*
X273600Y214000D01*
X273600Y214950D02*
X274600Y214950D01*
X274600Y215900D02*
X273600Y215900D01*
X269600Y216050D02*
X269600Y208300D01*
X269600Y216050D02*
X270600Y216050D01*
X270600Y208300D01*
X269600Y208300D01*
X269600Y209250D02*
X270600Y209250D01*
X270600Y210200D02*
X269600Y210200D01*
X269600Y211150D02*
X270600Y211150D01*
X270600Y212100D02*
X269600Y212100D01*
X269600Y213050D02*
X270600Y213050D01*
X270600Y214000D02*
X269600Y214000D01*
X269600Y214950D02*
X270600Y214950D01*
X270600Y215900D02*
X269600Y215900D01*
X265600Y216050D02*
X265600Y208300D01*
X265600Y216050D02*
X266600Y216050D01*
X266600Y208300D01*
X265600Y208300D01*
X265600Y209250D02*
X266600Y209250D01*
X266600Y210200D02*
X265600Y210200D01*
X265600Y211150D02*
X266600Y211150D01*
X266600Y212100D02*
X265600Y212100D01*
X265600Y213050D02*
X266600Y213050D01*
X266600Y214000D02*
X265600Y214000D01*
X265600Y214950D02*
X266600Y214950D01*
X266600Y215900D02*
X265600Y215900D01*
D11*
X304800Y242650D03*
X304800Y252650D03*
X281940Y242650D03*
X281940Y252650D03*
X306070Y114982D03*
X306070Y104982D03*
X316230Y242650D03*
X316230Y252650D03*
X293370Y242650D03*
X293370Y252650D03*
D12*
X228520Y204470D03*
X218520Y204470D03*
X228520Y167640D03*
X218520Y167640D03*
D11*
X293370Y114982D03*
X293370Y104982D03*
D12*
X353648Y167640D03*
X363648Y167640D03*
X353648Y203200D03*
X363648Y203200D03*
X353648Y228600D03*
X363648Y228600D03*
X353648Y215900D03*
X363648Y215900D03*
X417750Y220980D03*
X407750Y220980D03*
D13*
X196850Y274760D03*
X184150Y274760D03*
X171450Y274760D03*
X158750Y274760D03*
X158750Y202760D03*
X171450Y202760D03*
X184150Y202760D03*
X196850Y202760D03*
D12*
X122000Y234950D03*
X132000Y234950D03*
X132000Y222250D03*
X122000Y222250D03*
D14*
X454440Y62294D03*
X454440Y17294D03*
X363440Y17294D03*
X363440Y62294D03*
D12*
X132000Y209550D03*
X122000Y209550D03*
X132000Y196850D03*
X122000Y196850D03*
D15*
X540512Y124714D03*
X540512Y101600D03*
X540512Y78486D03*
D16*
X602490Y101600D03*
D12*
X500300Y78740D03*
X490300Y78740D03*
X500300Y101600D03*
X490300Y101600D03*
D17*
X509896Y123190D03*
X492896Y123190D03*
D18*
X198120Y112500D03*
X198120Y95500D03*
D19*
X245000Y100950D03*
X263000Y100950D03*
X263000Y114950D03*
X245000Y114950D03*
D11*
X327660Y242650D03*
X327660Y252650D03*
X214630Y112950D03*
X214630Y102950D03*
D20*
X275370Y25669D03*
X275370Y11669D03*
X311370Y11669D03*
X311370Y25669D03*
D21*
X127508Y107887D03*
X164592Y107887D03*
X164592Y171514D03*
X127508Y171514D03*
D22*
X83480Y304800D03*
X104480Y304800D03*
X18710Y304800D03*
X39710Y304800D03*
D23*
X556820Y154500D03*
X556820Y309500D03*
D24*
X463820Y154500D03*
D25*
X461320Y300500D03*
D26*
X450820Y166500D03*
X450820Y177500D03*
X450820Y188500D03*
X450820Y199500D03*
X450820Y210500D03*
X450820Y221500D03*
X450820Y232500D03*
X450820Y243500D03*
X450820Y254500D03*
M02*
